<?xml version="1.0"?>
<!-- Generated by SVGo -->
<svg width="248.602mm" height="96.202mm"
     viewBox="0.000 0.000 248.602 96.202"
     xmlns="http://www.w3.org/2000/svg" 
     xmlns:xlink="http://www.w3.org/1999/xlink">
<polygon points="241.602,5.001 241.758,5.007 241.914,5.025 242.068,5.056 242.220,5.098 242.367,5.153 242.509,5.218 242.646,5.295 242.777,5.382 242.900,5.480 243.016,5.586 243.122,5.702 243.220,5.825 243.307,5.956 243.384,6.093 243.449,6.235 243.504,6.382 243.546,6.534 243.577,6.688 243.595,6.844 243.602,7.001 243.602,89.202 243.595,89.358 243.577,89.514 243.546,89.668 243.504,89.820 243.449,89.967 243.384,90.109 243.307,90.246 243.220,90.377 243.122,90.500 243.016,90.616 242.900,90.722 242.777,90.820 242.646,90.907 242.509,90.984 242.367,91.049 242.220,91.104 242.068,91.146 241.914,91.177 241.758,91.195 241.602,91.201 7.001,91.202 6.844,91.195 6.688,91.177 6.534,91.146 6.382,91.104 6.235,91.049 6.093,90.984 5.956,90.907 5.825,90.820 5.702,90.722 5.586,90.616 5.480,90.500 5.382,90.377 5.295,90.246 5.218,90.109 5.153,89.967 5.098,89.820 5.056,89.668 5.025,89.514 5.007,89.358 5.000,89.202 5.001,7.001 5.007,6.844 5.025,6.688 5.056,6.534 5.098,6.382 5.153,6.235 5.218,6.093 5.295,5.956 5.382,5.825 5.480,5.702 5.586,5.586 5.702,5.480 5.825,5.382 5.956,5.295 6.093,5.218 6.235,5.153 6.382,5.098 6.534,5.056 6.688,5.025 6.844,5.007 7.001,5.000" style="fill:none;stroke-width:0.050000mm;stroke:black"/>
</svg>
