  0
SECTION
  2
HEADER
  9
$ACADVER
  1
AC1009
  9
$EXTMIN
 10
0.0
 20
0.0
 30
0.0
  9
$EXTMAX
 10
1000.0
 20
1000.0
 30
0.0
  9
$FILLMODE
 70
 0
  9
$SPLFRAME
 70
 1
  0
ENDSEC
  0
SECTION
  2
TABLES
  0
TABLE
  2
LAYER
 70
1
  0
LAYER
  2
0
 70
     0
 62
     7
  6
CONTINUOUS
  0
ENDTAB
  0
ENDSEC
  0
SECTION
  2
ENTITIES
  0
LINE
  8
0
 62
     0
 10
236.696
 20
86.2803
 30
0.0
 11
236.852
 21
86.275
 31
0.0
  0
LINE
  8
0
 62
     0
 10
236.852
 20
86.275
 30
0.0
 11
237.007
 21
86.257
 31
0.0
  0
LINE
  8
0
 62
     0
 10
237.007
 20
86.257
 30
0.0
 11
237.162
 21
86.2252
 31
0.0
  0
LINE
  8
0
 62
     0
 10
237.162
 20
86.2252
 30
0.0
 11
237.313
 21
86.184
 31
0.0
  0
LINE
  8
0
 62
     0
 10
237.313
 20
86.184
 30
0.0
 11
237.461
 21
86.1289
 31
0.0
  0
LINE
  8
0
 62
     0
 10
237.461
 20
86.1289
 30
0.0
 11
237.603
 21
86.064
 31
0.0
  0
LINE
  8
0
 62
     0
 10
237.603
 20
86.064
 30
0.0
 11
237.739
 21
85.9868
 31
0.0
  0
LINE
  8
0
 62
     0
 10
237.739
 20
85.9868
 30
0.0
 11
237.87
 21
85.9
 31
0.0
  0
LINE
  8
0
 62
     0
 10
237.87
 20
85.9
 30
0.0
 11
237.994
 21
85.8023
 31
0.0
  0
LINE
  8
0
 62
     0
 10
237.994
 20
85.8023
 30
0.0
 11
238.11
 21
85.6961
 31
0.0
  0
LINE
  8
0
 62
     0
 10
238.11
 20
85.6961
 30
0.0
 11
238.216
 21
85.5804
 31
0.0
  0
LINE
  8
0
 62
     0
 10
238.216
 20
85.5804
 30
0.0
 11
238.314
 21
85.4562
 31
0.0
  0
LINE
  8
0
 62
     0
 10
238.314
 20
85.4562
 30
0.0
 11
238.401
 21
85.3253
 31
0.0
  0
LINE
  8
0
 62
     0
 10
238.401
 20
85.3253
 30
0.0
 11
238.478
 21
85.1888
 31
0.0
  0
LINE
  8
0
 62
     0
 10
238.478
 20
85.1888
 30
0.0
 11
238.543
 21
85.047
 31
0.0
  0
LINE
  8
0
 62
     0
 10
238.543
 20
85.047
 30
0.0
 11
238.598
 21
84.8995
 31
0.0
  0
LINE
  8
0
 62
     0
 10
238.598
 20
84.8995
 30
0.0
 11
238.64
 21
84.7478
 31
0.0
  0
LINE
  8
0
 62
     0
 10
238.64
 20
84.7478
 30
0.0
 11
238.671
 21
84.5936
 31
0.0
  0
LINE
  8
0
 62
     0
 10
238.671
 20
84.5936
 30
0.0
 11
238.689
 21
84.4381
 31
0.0
  0
LINE
  8
0
 62
     0
 10
238.689
 20
84.4381
 30
0.0
 11
238.695
 21
84.2807
 31
0.0
  0
LINE
  8
0
 62
     0
 10
238.695
 20
84.2807
 30
0.0
 11
238.695
 21
2.07946
 31
0.0
  0
LINE
  8
0
 62
     0
 10
238.695
 20
2.07946
 30
0.0
 11
238.689
 21
1.92374
 31
0.0
  0
LINE
  8
0
 62
     0
 10
238.689
 20
1.92374
 30
0.0
 11
238.671
 21
1.76802
 31
0.0
  0
LINE
  8
0
 62
     0
 10
238.671
 20
1.76802
 30
0.0
 11
238.64
 21
1.61368
 31
0.0
  0
LINE
  8
0
 62
     0
 10
238.64
 20
1.61368
 30
0.0
 11
238.598
 21
1.4621
 31
0.0
  0
LINE
  8
0
 62
     0
 10
238.598
 20
1.4621
 30
0.0
 11
238.543
 21
1.31465
 31
0.0
  0
LINE
  8
0
 62
     0
 10
238.543
 20
1.31465
 30
0.0
 11
238.478
 21
1.17271
 31
0.0
  0
LINE
  8
0
 62
     0
 10
238.478
 20
1.17271
 30
0.0
 11
238.401
 21
1.03628
 31
0.0
  0
LINE
  8
0
 62
     0
 10
238.401
 20
1.03628
 30
0.0
 11
238.314
 21
0.905372
 31
0.0
  0
LINE
  8
0
 62
     0
 10
238.314
 20
0.905372
 30
0.0
 11
238.216
 21
0.781346
 31
0.0
  0
LINE
  8
0
 62
     0
 10
238.216
 20
0.781346
 30
0.0
 11
238.11
 21
0.665593
 31
0.0
  0
LINE
  8
0
 62
     0
 10
238.11
 20
0.665593
 30
0.0
 11
237.994
 21
0.559484
 31
0.0
  0
LINE
  8
0
 62
     0
 10
237.994
 20
0.559484
 30
0.0
 11
237.87
 21
0.461641
 31
0.0
  0
LINE
  8
0
 62
     0
 10
237.87
 20
0.461641
 30
0.0
 11
237.739
 21
0.374826
 31
0.0
  0
LINE
  8
0
 62
     0
 10
237.739
 20
0.374826
 30
0.0
 11
237.603
 21
0.297656
 31
0.0
  0
LINE
  8
0
 62
     0
 10
237.603
 20
0.297656
 30
0.0
 11
237.461
 21
0.232888
 31
0.0
  0
LINE
  8
0
 62
     0
 10
237.461
 20
0.232888
 30
0.0
 11
237.313
 21
0.177767
 31
0.0
  0
LINE
  8
0
 62
     0
 10
237.313
 20
0.177767
 30
0.0
 11
237.162
 21
0.135048
 31
0.0
  0
LINE
  8
0
 62
     0
 10
237.162
 20
0.135048
 30
0.0
 11
237.007
 21
0.104731
 31
0.0
  0
LINE
  8
0
 62
     0
 10
237.007
 20
0.104731
 30
0.0
 11
236.852
 21
0.0868165
 31
0.0
  0
LINE
  8
0
 62
     0
 10
236.852
 20
0.0868165
 30
0.0
 11
236.696
 21
0.0813043
 31
0.0
  0
LINE
  8
0
 62
     0
 10
236.696
 20
0.0813043
 30
0.0
 11
2.09462
 21
0.0799264
 31
0.0
  0
LINE
  8
0
 62
     0
 10
2.09462
 20
0.0799264
 30
0.0
 11
1.93752
 21
0.0868165
 31
0.0
  0
LINE
  8
0
 62
     0
 10
1.93752
 20
0.0868165
 30
0.0
 11
1.7818
 21
0.104731
 31
0.0
  0
LINE
  8
0
 62
     0
 10
1.7818
 20
0.104731
 30
0.0
 11
1.62746
 21
0.135048
 31
0.0
  0
LINE
  8
0
 62
     0
 10
1.62746
 20
0.135048
 30
0.0
 11
1.47588
 21
0.177767
 31
0.0
  0
LINE
  8
0
 62
     0
 10
1.47588
 20
0.177767
 30
0.0
 11
1.32843
 21
0.232888
 31
0.0
  0
LINE
  8
0
 62
     0
 10
1.32843
 20
0.232888
 30
0.0
 11
1.18649
 21
0.297656
 31
0.0
  0
LINE
  8
0
 62
     0
 10
1.18649
 20
0.297656
 30
0.0
 11
1.05006
 21
0.374826
 31
0.0
  0
LINE
  8
0
 62
     0
 10
1.05006
 20
0.374826
 30
0.0
 11
0.919152
 21
0.461641
 31
0.0
  0
LINE
  8
0
 62
     0
 10
0.919152
 20
0.461641
 30
0.0
 11
0.795129
 21
0.559484
 31
0.0
  0
LINE
  8
0
 62
     0
 10
0.795129
 20
0.559484
 30
0.0
 11
0.679372
 21
0.665593
 31
0.0
  0
LINE
  8
0
 62
     0
 10
0.679372
 20
0.665593
 30
0.0
 11
0.573264
 21
0.781346
 31
0.0
  0
LINE
  8
0
 62
     0
 10
0.573264
 20
0.781346
 30
0.0
 11
0.475424
 21
0.905372
 31
0.0
  0
LINE
  8
0
 62
     0
 10
0.475424
 20
0.905372
 30
0.0
 11
0.388606
 21
1.03628
 31
0.0
  0
LINE
  8
0
 62
     0
 10
0.388606
 20
1.03628
 30
0.0
 11
0.311437
 21
1.17271
 31
0.0
  0
LINE
  8
0
 62
     0
 10
0.311437
 20
1.17271
 30
0.0
 11
0.246669
 21
1.31465
 31
0.0
  0
LINE
  8
0
 62
     0
 10
0.246669
 20
1.31465
 30
0.0
 11
0.191547
 21
1.4621
 31
0.0
  0
LINE
  8
0
 62
     0
 10
0.191547
 20
1.4621
 30
0.0
 11
0.150206
 21
1.61368
 31
0.0
  0
LINE
  8
0
 62
     0
 10
0.150206
 20
1.61368
 30
0.0
 11
0.118511
 21
1.76802
 31
0.0
  0
LINE
  8
0
 62
     0
 10
0.118511
 20
1.76802
 30
0.0
 11
0.100597
 21
1.92374
 31
0.0
  0
LINE
  8
0
 62
     0
 10
0.100597
 20
1.92374
 30
0.0
 11
0.0937066
 21
2.07946
 31
0.0
  0
LINE
  8
0
 62
     0
 10
0.0937066
 20
2.07946
 30
0.0
 11
0.0950846
 21
84.2807
 31
0.0
  0
LINE
  8
0
 62
     0
 10
0.0950846
 20
84.2807
 30
0.0
 11
0.100597
 21
84.4381
 31
0.0
  0
LINE
  8
0
 62
     0
 10
0.100597
 20
84.4381
 30
0.0
 11
0.118511
 21
84.5936
 31
0.0
  0
LINE
  8
0
 62
     0
 10
0.118511
 20
84.5936
 30
0.0
 11
0.150206
 21
84.7478
 31
0.0
  0
LINE
  8
0
 62
     0
 10
0.150206
 20
84.7478
 30
0.0
 11
0.191547
 21
84.8995
 31
0.0
  0
LINE
  8
0
 62
     0
 10
0.191547
 20
84.8995
 30
0.0
 11
0.246669
 21
85.047
 31
0.0
  0
LINE
  8
0
 62
     0
 10
0.246669
 20
85.047
 30
0.0
 11
0.311437
 21
85.1888
 31
0.0
  0
LINE
  8
0
 62
     0
 10
0.311437
 20
85.1888
 30
0.0
 11
0.388606
 21
85.3253
 31
0.0
  0
LINE
  8
0
 62
     0
 10
0.388606
 20
85.3253
 30
0.0
 11
0.475424
 21
85.4562
 31
0.0
  0
LINE
  8
0
 62
     0
 10
0.475424
 20
85.4562
 30
0.0
 11
0.573264
 21
85.5804
 31
0.0
  0
LINE
  8
0
 62
     0
 10
0.573264
 20
85.5804
 30
0.0
 11
0.679372
 21
85.6961
 31
0.0
  0
LINE
  8
0
 62
     0
 10
0.679372
 20
85.6961
 30
0.0
 11
0.795129
 21
85.8023
 31
0.0
  0
LINE
  8
0
 62
     0
 10
0.795129
 20
85.8023
 30
0.0
 11
0.919152
 21
85.9
 31
0.0
  0
LINE
  8
0
 62
     0
 10
0.919152
 20
85.9
 30
0.0
 11
1.05006
 21
85.9868
 31
0.0
  0
LINE
  8
0
 62
     0
 10
1.05006
 20
85.9868
 30
0.0
 11
1.18649
 21
86.064
 31
0.0
  0
LINE
  8
0
 62
     0
 10
1.18649
 20
86.064
 30
0.0
 11
1.32843
 21
86.1289
 31
0.0
  0
LINE
  8
0
 62
     0
 10
1.32843
 20
86.1289
 30
0.0
 11
1.47588
 21
86.184
 31
0.0
  0
LINE
  8
0
 62
     0
 10
1.47588
 20
86.184
 30
0.0
 11
1.62746
 21
86.2252
 31
0.0
  0
LINE
  8
0
 62
     0
 10
1.62746
 20
86.2252
 30
0.0
 11
1.7818
 21
86.257
 31
0.0
  0
LINE
  8
0
 62
     0
 10
1.7818
 20
86.257
 30
0.0
 11
1.93752
 21
86.275
 31
0.0
  0
LINE
  8
0
 62
     0
 10
1.93752
 20
86.275
 30
0.0
 11
2.09462
 21
86.2817
 31
0.0
  0
LINE
  8
0
 62
     0
 10
2.09462
 20
86.2817
 30
0.0
 11
236.696
 21
86.2803
 31
0.0
  0
ENDSEC
  0
EOF
