<?xml version="1.0" encoding="UTF-8" standalone="no"?>
<!-- Generated by SVGo -->

<svg
   xmlns:dc="http://purl.org/dc/elements/1.1/"
   xmlns:cc="http://creativecommons.org/ns#"
   xmlns:rdf="http://www.w3.org/1999/02/22-rdf-syntax-ns#"
   xmlns:svg="http://www.w3.org/2000/svg"
   xmlns="http://www.w3.org/2000/svg"
   xmlns:sodipodi="http://sodipodi.sourceforge.net/DTD/sodipodi-0.dtd"
   xmlns:inkscape="http://www.inkscape.org/namespaces/inkscape"
   width="248.602mm"
   height="96.202mm"
   viewBox="0.000 0.000 248.602 96.202"
   version="1.1"
   id="svg4550"
   sodipodi:docname="bottom_474330e8fb4cfa9a8d6ede4c2ee8848b3181f8f4.svg"
   inkscape:version="0.92.1 r">
  <metadata
     id="metadata4556">
    <rdf:RDF>
      <cc:Work
         rdf:about="">
        <dc:format>image/svg+xml</dc:format>
        <dc:type
           rdf:resource="http://purl.org/dc/dcmitype/StillImage" />
        <dc:title></dc:title>
      </cc:Work>
    </rdf:RDF>
  </metadata>
  <defs
     id="defs4554" />
  <sodipodi:namedview
     pagecolor="#ffffff"
     bordercolor="#666666"
     borderopacity="1"
     objecttolerance="10"
     gridtolerance="10"
     guidetolerance="10"
     inkscape:pageopacity="0"
     inkscape:pageshadow="2"
     inkscape:window-width="1914"
     inkscape:window-height="1052"
     id="namedview4552"
     showgrid="false"
     inkscape:zoom="1.6166486"
     inkscape:cx="386.99051"
     inkscape:cy="354.99687"
     inkscape:window-x="0"
     inkscape:window-y="0"
     inkscape:window-maximized="0"
     inkscape:current-layer="svg4550" />
  <polygon
     transform="matrix(0.97489091,0,0,0.930497,-47.258946,-45.061913)"
     points="242.646,5.295 242.777,5.382 242.9,5.48 243.016,5.586 243.122,5.702 243.22,5.825 243.307,5.956 243.384,6.093 243.449,6.235 243.504,6.382 243.546,6.534 243.577,6.688 243.595,6.844 243.602,7.001 243.602,89.202 243.595,89.358 243.577,89.514 243.546,89.668 243.504,89.82 243.449,89.967 243.384,90.109 243.307,90.246 243.22,90.377 243.122,90.5 243.016,90.616 242.9,90.722 242.777,90.82 242.646,90.907 242.509,90.984 242.367,91.049 242.22,91.104 242.068,91.146 241.914,91.177 241.758,91.195 241.602,91.201 7.001,91.202 6.844,91.195 6.688,91.177 6.534,91.146 6.382,91.104 6.235,91.049 6.093,90.984 5.956,90.907 5.825,90.82 5.702,90.722 5.586,90.616 5.48,90.5 5.382,90.377 5.295,90.246 5.218,90.109 5.153,89.967 5.098,89.82 5.056,89.668 5.025,89.514 5.007,89.358 5,89.202 5.001,7.001 5.007,6.844 5.025,6.688 5.056,6.534 5.098,6.382 5.153,6.235 5.218,6.093 5.295,5.956 5.382,5.825 5.48,5.702 5.586,5.586 5.702,5.48 5.825,5.382 5.956,5.295 6.093,5.218 6.235,5.153 6.382,5.098 6.534,5.056 6.688,5.025 6.844,5.007 7.001,5 241.602,5.001 241.758,5.007 241.914,5.025 242.068,5.056 242.22,5.098 242.367,5.153 242.509,5.218 "
     style="fill:none;stroke:#000000;stroke-width:0.05mm"
     id="polygon4548-3" />
</svg>
