  0
SECTION
  2
HEADER
  9
$ACADVER
  1
AC1009
  9
$EXTMIN
 10
0.0
 20
0.0
 30
0.0
  9
$EXTMAX
 10
1000.0
 20
1000.0
 30
0.0
  9
$FILLMODE
 70
 0
  9
$SPLFRAME
 70
 1
  0
ENDSEC
  0
SECTION
  2
TABLES
  0
TABLE
  2
LAYER
 70
1
  0
LAYER
  2
0
 70
     0
 62
     7
  6
CONTINUOUS
  0
ENDTAB
  0
ENDSEC
  0
SECTION
  2
ENTITIES
  0
LINE
  8
0
 62
     0
 10
230.696
 20
80.2802
 30
0.0
 11
230.852
 21
80.2749
 31
0.0
  0
LINE
  8
0
 62
     0
 10
230.852
 20
80.2749
 30
0.0
 11
231.007
 21
80.2569
 31
0.0
  0
LINE
  8
0
 62
     0
 10
231.007
 20
80.2569
 30
0.0
 11
231.162
 21
80.2252
 31
0.0
  0
LINE
  8
0
 62
     0
 10
231.162
 20
80.2252
 30
0.0
 11
231.313
 21
80.1839
 31
0.0
  0
LINE
  8
0
 62
     0
 10
231.313
 20
80.1839
 30
0.0
 11
231.461
 21
80.1289
 31
0.0
  0
LINE
  8
0
 62
     0
 10
231.461
 20
80.1289
 30
0.0
 11
231.603
 21
80.064
 31
0.0
  0
LINE
  8
0
 62
     0
 10
231.603
 20
80.064
 30
0.0
 11
231.739
 21
79.9867
 31
0.0
  0
LINE
  8
0
 62
     0
 10
231.739
 20
79.9867
 30
0.0
 11
231.87
 21
79.8999
 31
0.0
  0
LINE
  8
0
 62
     0
 10
231.87
 20
79.8999
 30
0.0
 11
231.994
 21
79.8022
 31
0.0
  0
LINE
  8
0
 62
     0
 10
231.994
 20
79.8022
 30
0.0
 11
232.11
 21
79.696
 31
0.0
  0
LINE
  8
0
 62
     0
 10
232.11
 20
79.696
 30
0.0
 11
232.216
 21
79.5803
 31
0.0
  0
LINE
  8
0
 62
     0
 10
232.216
 20
79.5803
 30
0.0
 11
232.314
 21
79.4561
 31
0.0
  0
LINE
  8
0
 62
     0
 10
232.314
 20
79.4561
 30
0.0
 11
232.4
 21
79.3253
 31
0.0
  0
LINE
  8
0
 62
     0
 10
232.4
 20
79.3253
 30
0.0
 11
232.478
 21
79.1891
 31
0.0
  0
LINE
  8
0
 62
     0
 10
232.478
 20
79.1891
 30
0.0
 11
232.543
 21
79.0469
 31
0.0
  0
LINE
  8
0
 62
     0
 10
232.543
 20
79.0469
 30
0.0
 11
232.598
 21
78.8995
 31
0.0
  0
LINE
  8
0
 62
     0
 10
232.598
 20
78.8995
 30
0.0
 11
232.64
 21
78.7481
 31
0.0
  0
LINE
  8
0
 62
     0
 10
232.64
 20
78.7481
 30
0.0
 11
232.671
 21
78.5936
 31
0.0
  0
LINE
  8
0
 62
     0
 10
232.671
 20
78.5936
 30
0.0
 11
232.689
 21
78.438
 31
0.0
  0
LINE
  8
0
 62
     0
 10
232.689
 20
78.438
 30
0.0
 11
232.695
 21
78.2807
 31
0.0
  0
LINE
  8
0
 62
     0
 10
232.695
 20
78.2807
 30
0.0
 11
232.695
 21
2.07946
 31
0.0
  0
LINE
  8
0
 62
     0
 10
232.695
 20
2.07946
 30
0.0
 11
232.689
 21
1.92374
 31
0.0
  0
LINE
  8
0
 62
     0
 10
232.689
 20
1.92374
 30
0.0
 11
232.671
 21
1.76802
 31
0.0
  0
LINE
  8
0
 62
     0
 10
232.671
 20
1.76802
 30
0.0
 11
232.64
 21
1.61368
 31
0.0
  0
LINE
  8
0
 62
     0
 10
232.64
 20
1.61368
 30
0.0
 11
232.598
 21
1.4621
 31
0.0
  0
LINE
  8
0
 62
     0
 10
232.598
 20
1.4621
 30
0.0
 11
232.543
 21
1.31465
 31
0.0
  0
LINE
  8
0
 62
     0
 10
232.543
 20
1.31465
 30
0.0
 11
232.478
 21
1.17271
 31
0.0
  0
LINE
  8
0
 62
     0
 10
232.478
 20
1.17271
 30
0.0
 11
232.4
 21
1.03628
 31
0.0
  0
LINE
  8
0
 62
     0
 10
232.4
 20
1.03628
 30
0.0
 11
232.314
 21
0.905372
 31
0.0
  0
LINE
  8
0
 62
     0
 10
232.314
 20
0.905372
 30
0.0
 11
232.216
 21
0.781346
 31
0.0
  0
LINE
  8
0
 62
     0
 10
232.216
 20
0.781346
 30
0.0
 11
232.11
 21
0.665593
 31
0.0
  0
LINE
  8
0
 62
     0
 10
232.11
 20
0.665593
 30
0.0
 11
231.994
 21
0.559484
 31
0.0
  0
LINE
  8
0
 62
     0
 10
231.994
 20
0.559484
 30
0.0
 11
231.87
 21
0.461641
 31
0.0
  0
LINE
  8
0
 62
     0
 10
231.87
 20
0.461641
 30
0.0
 11
231.739
 21
0.374826
 31
0.0
  0
LINE
  8
0
 62
     0
 10
231.739
 20
0.374826
 30
0.0
 11
231.603
 21
0.297656
 31
0.0
  0
LINE
  8
0
 62
     0
 10
231.603
 20
0.297656
 30
0.0
 11
231.461
 21
0.232888
 31
0.0
  0
LINE
  8
0
 62
     0
 10
231.461
 20
0.232888
 30
0.0
 11
231.313
 21
0.177767
 31
0.0
  0
LINE
  8
0
 62
     0
 10
231.313
 20
0.177767
 30
0.0
 11
231.162
 21
0.135048
 31
0.0
  0
LINE
  8
0
 62
     0
 10
231.162
 20
0.135048
 30
0.0
 11
231.007
 21
0.104731
 31
0.0
  0
LINE
  8
0
 62
     0
 10
231.007
 20
0.104731
 30
0.0
 11
230.852
 21
0.0868165
 31
0.0
  0
LINE
  8
0
 62
     0
 10
230.852
 20
0.0868165
 30
0.0
 11
230.696
 21
0.0813043
 31
0.0
  0
LINE
  8
0
 62
     0
 10
230.696
 20
0.0813043
 30
0.0
 11
2.09462
 21
0.0799264
 31
0.0
  0
LINE
  8
0
 62
     0
 10
2.09462
 20
0.0799264
 30
0.0
 11
1.93752
 21
0.0868165
 31
0.0
  0
LINE
  8
0
 62
     0
 10
1.93752
 20
0.0868165
 30
0.0
 11
1.7818
 21
0.104731
 31
0.0
  0
LINE
  8
0
 62
     0
 10
1.7818
 20
0.104731
 30
0.0
 11
1.62746
 21
0.135048
 31
0.0
  0
LINE
  8
0
 62
     0
 10
1.62746
 20
0.135048
 30
0.0
 11
1.47588
 21
0.177767
 31
0.0
  0
LINE
  8
0
 62
     0
 10
1.47588
 20
0.177767
 30
0.0
 11
1.32843
 21
0.232888
 31
0.0
  0
LINE
  8
0
 62
     0
 10
1.32843
 20
0.232888
 30
0.0
 11
1.18649
 21
0.297656
 31
0.0
  0
LINE
  8
0
 62
     0
 10
1.18649
 20
0.297656
 30
0.0
 11
1.05006
 21
0.374826
 31
0.0
  0
LINE
  8
0
 62
     0
 10
1.05006
 20
0.374826
 30
0.0
 11
0.919152
 21
0.461641
 31
0.0
  0
LINE
  8
0
 62
     0
 10
0.919152
 20
0.461641
 30
0.0
 11
0.795129
 21
0.559484
 31
0.0
  0
LINE
  8
0
 62
     0
 10
0.795129
 20
0.559484
 30
0.0
 11
0.679372
 21
0.665593
 31
0.0
  0
LINE
  8
0
 62
     0
 10
0.679372
 20
0.665593
 30
0.0
 11
0.573264
 21
0.781346
 31
0.0
  0
LINE
  8
0
 62
     0
 10
0.573264
 20
0.781346
 30
0.0
 11
0.475424
 21
0.905372
 31
0.0
  0
LINE
  8
0
 62
     0
 10
0.475424
 20
0.905372
 30
0.0
 11
0.388606
 21
1.03628
 31
0.0
  0
LINE
  8
0
 62
     0
 10
0.388606
 20
1.03628
 30
0.0
 11
0.311437
 21
1.17271
 31
0.0
  0
LINE
  8
0
 62
     0
 10
0.311437
 20
1.17271
 30
0.0
 11
0.246669
 21
1.31465
 31
0.0
  0
LINE
  8
0
 62
     0
 10
0.246669
 20
1.31465
 30
0.0
 11
0.191547
 21
1.4621
 31
0.0
  0
LINE
  8
0
 62
     0
 10
0.191547
 20
1.4621
 30
0.0
 11
0.150206
 21
1.61368
 31
0.0
  0
LINE
  8
0
 62
     0
 10
0.150206
 20
1.61368
 30
0.0
 11
0.118511
 21
1.76802
 31
0.0
  0
LINE
  8
0
 62
     0
 10
0.118511
 20
1.76802
 30
0.0
 11
0.100597
 21
1.92374
 31
0.0
  0
LINE
  8
0
 62
     0
 10
0.100597
 20
1.92374
 30
0.0
 11
0.0937066
 21
2.07946
 31
0.0
  0
LINE
  8
0
 62
     0
 10
0.0937066
 20
2.07946
 30
0.0
 11
0.0950846
 21
78.2807
 31
0.0
  0
LINE
  8
0
 62
     0
 10
0.0950846
 20
78.2807
 30
0.0
 11
0.100597
 21
78.438
 31
0.0
  0
LINE
  8
0
 62
     0
 10
0.100597
 20
78.438
 30
0.0
 11
0.118511
 21
78.5936
 31
0.0
  0
LINE
  8
0
 62
     0
 10
0.118511
 20
78.5936
 30
0.0
 11
0.150206
 21
78.7481
 31
0.0
  0
LINE
  8
0
 62
     0
 10
0.150206
 20
78.7481
 30
0.0
 11
0.191547
 21
78.8995
 31
0.0
  0
LINE
  8
0
 62
     0
 10
0.191547
 20
78.8995
 30
0.0
 11
0.246669
 21
79.0469
 31
0.0
  0
LINE
  8
0
 62
     0
 10
0.246669
 20
79.0469
 30
0.0
 11
0.311437
 21
79.1891
 31
0.0
  0
LINE
  8
0
 62
     0
 10
0.311437
 20
79.1891
 30
0.0
 11
0.388606
 21
79.3253
 31
0.0
  0
LINE
  8
0
 62
     0
 10
0.388606
 20
79.3253
 30
0.0
 11
0.475424
 21
79.4561
 31
0.0
  0
LINE
  8
0
 62
     0
 10
0.475424
 20
79.4561
 30
0.0
 11
0.573264
 21
79.5803
 31
0.0
  0
LINE
  8
0
 62
     0
 10
0.573264
 20
79.5803
 30
0.0
 11
0.679372
 21
79.696
 31
0.0
  0
LINE
  8
0
 62
     0
 10
0.679372
 20
79.696
 30
0.0
 11
0.795129
 21
79.8022
 31
0.0
  0
LINE
  8
0
 62
     0
 10
0.795129
 20
79.8022
 30
0.0
 11
0.919152
 21
79.8999
 31
0.0
  0
LINE
  8
0
 62
     0
 10
0.919152
 20
79.8999
 30
0.0
 11
1.05006
 21
79.9867
 31
0.0
  0
LINE
  8
0
 62
     0
 10
1.05006
 20
79.9867
 30
0.0
 11
1.18649
 21
80.064
 31
0.0
  0
LINE
  8
0
 62
     0
 10
1.18649
 20
80.064
 30
0.0
 11
1.32843
 21
80.1289
 31
0.0
  0
LINE
  8
0
 62
     0
 10
1.32843
 20
80.1289
 30
0.0
 11
1.47588
 21
80.1839
 31
0.0
  0
LINE
  8
0
 62
     0
 10
1.47588
 20
80.1839
 30
0.0
 11
1.62746
 21
80.2252
 31
0.0
  0
LINE
  8
0
 62
     0
 10
1.62746
 20
80.2252
 30
0.0
 11
1.7818
 21
80.2569
 31
0.0
  0
LINE
  8
0
 62
     0
 10
1.7818
 20
80.2569
 30
0.0
 11
1.93752
 21
80.2749
 31
0.0
  0
LINE
  8
0
 62
     0
 10
1.93752
 20
80.2749
 30
0.0
 11
2.09462
 21
80.2816
 31
0.0
  0
LINE
  8
0
 62
     0
 10
2.09462
 20
80.2816
 30
0.0
 11
230.696
 21
80.2802
 31
0.0
  0
LINE
  8
0
 62
     0
 10
109.394
 20
18.6063
 30
0.0
 11
109.394
 21
13.9058
 31
0.0
  0
LINE
  8
0
 62
     0
 10
109.394
 20
13.9058
 30
0.0
 11
107.869
 21
13.9058
 31
0.0
  0
LINE
  8
0
 62
     0
 10
107.869
 20
13.9058
 30
0.0
 11
107.869
 21
17.1359
 31
0.0
  0
LINE
  8
0
 62
     0
 10
107.869
 20
17.1359
 30
0.0
 11
101.119
 21
17.1359
 31
0.0
  0
LINE
  8
0
 62
     0
 10
101.119
 20
17.1359
 30
0.0
 11
101.119
 21
13.9058
 31
0.0
  0
LINE
  8
0
 62
     0
 10
101.119
 20
13.9058
 30
0.0
 11
100.294
 21
13.9058
 31
0.0
  0
LINE
  8
0
 62
     0
 10
100.294
 20
13.9058
 30
0.0
 11
100.294
 21
11.1056
 31
0.0
  0
LINE
  8
0
 62
     0
 10
100.294
 20
11.1056
 30
0.0
 11
101.119
 21
11.1056
 31
0.0
  0
LINE
  8
0
 62
     0
 10
101.119
 20
11.1056
 30
0.0
 11
101.119
 21
4.83552
 31
0.0
  0
LINE
  8
0
 62
     0
 10
101.119
 20
4.83552
 30
0.0
 11
102.844
 21
4.83552
 31
0.0
  0
LINE
  8
0
 62
     0
 10
102.844
 20
4.83552
 30
0.0
 11
102.844
 21
3.63527
 31
0.0
  0
LINE
  8
0
 62
     0
 10
102.844
 20
3.63527
 30
0.0
 11
106.145
 21
3.63527
 31
0.0
  0
LINE
  8
0
 62
     0
 10
106.145
 20
3.63527
 30
0.0
 11
106.145
 21
4.83552
 31
0.0
  0
LINE
  8
0
 62
     0
 10
106.145
 20
4.83552
 30
0.0
 11
107.869
 21
4.83552
 31
0.0
  0
LINE
  8
0
 62
     0
 10
107.869
 20
4.83552
 30
0.0
 11
107.869
 21
9.30589
 31
0.0
  0
LINE
  8
0
 62
     0
 10
107.869
 20
9.30589
 30
0.0
 11
109.394
 21
9.30589
 31
0.0
  0
LINE
  8
0
 62
     0
 10
109.394
 20
9.30589
 30
0.0
 11
109.394
 21
4.60541
 31
0.0
  0
LINE
  8
0
 62
     0
 10
109.394
 20
4.60541
 30
0.0
 11
123.395
 21
4.60541
 31
0.0
  0
LINE
  8
0
 62
     0
 10
123.395
 20
4.60541
 30
0.0
 11
123.395
 21
9.30589
 31
0.0
  0
LINE
  8
0
 62
     0
 10
123.395
 20
9.30589
 30
0.0
 11
124.919
 21
9.30589
 31
0.0
  0
LINE
  8
0
 62
     0
 10
124.919
 20
9.30589
 30
0.0
 11
124.919
 21
4.83552
 31
0.0
  0
LINE
  8
0
 62
     0
 10
124.919
 20
4.83552
 30
0.0
 11
126.644
 21
4.83552
 31
0.0
  0
LINE
  8
0
 62
     0
 10
126.644
 20
4.83552
 30
0.0
 11
126.644
 21
3.63527
 31
0.0
  0
LINE
  8
0
 62
     0
 10
126.644
 20
3.63527
 30
0.0
 11
129.945
 21
3.63527
 31
0.0
  0
LINE
  8
0
 62
     0
 10
129.945
 20
3.63527
 30
0.0
 11
129.945
 21
4.83552
 31
0.0
  0
LINE
  8
0
 62
     0
 10
129.945
 20
4.83552
 30
0.0
 11
131.67
 21
4.83552
 31
0.0
  0
LINE
  8
0
 62
     0
 10
131.67
 20
4.83552
 30
0.0
 11
131.67
 21
11.1056
 31
0.0
  0
LINE
  8
0
 62
     0
 10
131.67
 20
11.1056
 30
0.0
 11
132.494
 21
11.1056
 31
0.0
  0
LINE
  8
0
 62
     0
 10
132.494
 20
11.1056
 30
0.0
 11
132.494
 21
13.9058
 31
0.0
  0
LINE
  8
0
 62
     0
 10
132.494
 20
13.9058
 30
0.0
 11
131.67
 21
13.9058
 31
0.0
  0
LINE
  8
0
 62
     0
 10
131.67
 20
13.9058
 30
0.0
 11
131.67
 21
17.1359
 31
0.0
  0
LINE
  8
0
 62
     0
 10
131.67
 20
17.1359
 30
0.0
 11
124.919
 21
17.1359
 31
0.0
  0
LINE
  8
0
 62
     0
 10
124.919
 20
17.1359
 30
0.0
 11
124.919
 21
13.9058
 31
0.0
  0
LINE
  8
0
 62
     0
 10
124.919
 20
13.9058
 30
0.0
 11
123.395
 21
13.9058
 31
0.0
  0
LINE
  8
0
 62
     0
 10
123.395
 20
13.9058
 30
0.0
 11
123.395
 21
18.6063
 31
0.0
  0
LINE
  8
0
 62
     0
 10
123.395
 20
18.6063
 30
0.0
 11
109.394
 21
18.6063
 31
0.0
  0
LINE
  8
0
 62
     0
 10
4.6192
 20
18.6063
 30
0.0
 11
18.6201
 21
18.6063
 31
0.0
  0
LINE
  8
0
 62
     0
 10
18.6201
 20
18.6063
 30
0.0
 11
18.6201
 21
4.60403
 31
0.0
  0
LINE
  8
0
 62
     0
 10
18.6201
 20
4.60403
 30
0.0
 11
4.6192
 21
4.60403
 31
0.0
  0
LINE
  8
0
 62
     0
 10
4.6192
 20
4.60403
 30
0.0
 11
4.6192
 21
18.6063
 31
0.0
  0
LINE
  8
0
 62
     0
 10
23.6692
 20
18.6063
 30
0.0
 11
37.67
 21
18.6063
 31
0.0
  0
LINE
  8
0
 62
     0
 10
37.67
 20
18.6063
 30
0.0
 11
37.67
 21
4.60403
 31
0.0
  0
LINE
  8
0
 62
     0
 10
37.67
 20
4.60403
 30
0.0
 11
23.6692
 21
4.60403
 31
0.0
  0
LINE
  8
0
 62
     0
 10
23.6692
 20
4.60403
 30
0.0
 11
23.6692
 21
18.6063
 31
0.0
  0
LINE
  8
0
 62
     0
 10
42.7193
 20
18.6063
 30
0.0
 11
56.72
 21
18.6063
 31
0.0
  0
LINE
  8
0
 62
     0
 10
56.72
 20
18.6063
 30
0.0
 11
56.72
 21
4.60403
 31
0.0
  0
LINE
  8
0
 62
     0
 10
56.72
 20
4.60403
 30
0.0
 11
42.7193
 21
4.60403
 31
0.0
  0
LINE
  8
0
 62
     0
 10
42.7193
 20
4.60403
 30
0.0
 11
42.7193
 21
18.6063
 31
0.0
  0
LINE
  8
0
 62
     0
 10
61.7693
 20
18.6063
 30
0.0
 11
75.77
 21
18.6063
 31
0.0
  0
LINE
  8
0
 62
     0
 10
75.77
 20
18.6063
 30
0.0
 11
75.77
 21
4.60403
 31
0.0
  0
LINE
  8
0
 62
     0
 10
75.77
 20
4.60403
 30
0.0
 11
61.7693
 21
4.60403
 31
0.0
  0
LINE
  8
0
 62
     0
 10
61.7693
 20
4.60403
 30
0.0
 11
61.7693
 21
18.6063
 31
0.0
  0
LINE
  8
0
 62
     0
 10
80.8193
 20
18.6063
 30
0.0
 11
94.82
 21
18.6063
 31
0.0
  0
LINE
  8
0
 62
     0
 10
94.82
 20
18.6063
 30
0.0
 11
94.82
 21
4.60403
 31
0.0
  0
LINE
  8
0
 62
     0
 10
94.82
 20
4.60403
 30
0.0
 11
80.8193
 21
4.60403
 31
0.0
  0
LINE
  8
0
 62
     0
 10
80.8193
 20
4.60403
 30
0.0
 11
80.8193
 21
18.6063
 31
0.0
  0
LINE
  8
0
 62
     0
 10
137.969
 20
18.6063
 30
0.0
 11
151.97
 21
18.6063
 31
0.0
  0
LINE
  8
0
 62
     0
 10
151.97
 20
18.6063
 30
0.0
 11
151.97
 21
4.60403
 31
0.0
  0
LINE
  8
0
 62
     0
 10
151.97
 20
4.60403
 30
0.0
 11
137.969
 21
4.60403
 31
0.0
  0
LINE
  8
0
 62
     0
 10
137.969
 20
4.60403
 30
0.0
 11
137.969
 21
18.6063
 31
0.0
  0
LINE
  8
0
 62
     0
 10
157.019
 20
18.6063
 30
0.0
 11
171.02
 21
18.6063
 31
0.0
  0
LINE
  8
0
 62
     0
 10
171.02
 20
18.6063
 30
0.0
 11
171.02
 21
4.60403
 31
0.0
  0
LINE
  8
0
 62
     0
 10
171.02
 20
4.60403
 30
0.0
 11
157.019
 21
4.60403
 31
0.0
  0
LINE
  8
0
 62
     0
 10
157.019
 20
4.60403
 30
0.0
 11
157.019
 21
18.6063
 31
0.0
  0
LINE
  8
0
 62
     0
 10
176.069
 20
18.6063
 30
0.0
 11
190.07
 21
18.6063
 31
0.0
  0
LINE
  8
0
 62
     0
 10
190.07
 20
18.6063
 30
0.0
 11
190.07
 21
4.60403
 31
0.0
  0
LINE
  8
0
 62
     0
 10
190.07
 20
4.60403
 30
0.0
 11
176.069
 21
4.60403
 31
0.0
  0
LINE
  8
0
 62
     0
 10
176.069
 20
4.60403
 30
0.0
 11
176.069
 21
18.6063
 31
0.0
  0
LINE
  8
0
 62
     0
 10
195.119
 20
18.6063
 30
0.0
 11
209.12
 21
18.6063
 31
0.0
  0
LINE
  8
0
 62
     0
 10
209.12
 20
18.6063
 30
0.0
 11
209.12
 21
4.60403
 31
0.0
  0
LINE
  8
0
 62
     0
 10
209.12
 20
4.60403
 30
0.0
 11
195.119
 21
4.60403
 31
0.0
  0
LINE
  8
0
 62
     0
 10
195.119
 20
4.60403
 30
0.0
 11
195.119
 21
18.6063
 31
0.0
  0
LINE
  8
0
 62
     0
 10
214.169
 20
18.6063
 30
0.0
 11
228.17
 21
18.6063
 31
0.0
  0
LINE
  8
0
 62
     0
 10
228.17
 20
18.6063
 30
0.0
 11
228.17
 21
4.60403
 31
0.0
  0
LINE
  8
0
 62
     0
 10
228.17
 20
4.60403
 30
0.0
 11
214.169
 21
4.60403
 31
0.0
  0
LINE
  8
0
 62
     0
 10
214.169
 20
4.60403
 30
0.0
 11
214.169
 21
18.6063
 31
0.0
  0
LINE
  8
0
 62
     0
 10
4.6192
 20
37.6562
 30
0.0
 11
18.6201
 21
37.6562
 31
0.0
  0
LINE
  8
0
 62
     0
 10
18.6201
 20
37.6562
 30
0.0
 11
18.6201
 21
23.654
 31
0.0
  0
LINE
  8
0
 62
     0
 10
18.6201
 20
23.654
 30
0.0
 11
4.6192
 21
23.654
 31
0.0
  0
LINE
  8
0
 62
     0
 10
4.6192
 20
23.654
 30
0.0
 11
4.6192
 21
37.6562
 31
0.0
  0
LINE
  8
0
 62
     0
 10
23.6692
 20
37.6562
 30
0.0
 11
37.67
 21
37.6562
 31
0.0
  0
LINE
  8
0
 62
     0
 10
37.67
 20
37.6562
 30
0.0
 11
37.67
 21
23.654
 31
0.0
  0
LINE
  8
0
 62
     0
 10
37.67
 20
23.654
 30
0.0
 11
23.6692
 21
23.654
 31
0.0
  0
LINE
  8
0
 62
     0
 10
23.6692
 20
23.654
 30
0.0
 11
23.6692
 21
37.6562
 31
0.0
  0
LINE
  8
0
 62
     0
 10
42.7193
 20
37.6562
 30
0.0
 11
56.72
 21
37.6562
 31
0.0
  0
LINE
  8
0
 62
     0
 10
56.72
 20
37.6562
 30
0.0
 11
56.72
 21
23.654
 31
0.0
  0
LINE
  8
0
 62
     0
 10
56.72
 20
23.654
 30
0.0
 11
42.7193
 21
23.654
 31
0.0
  0
LINE
  8
0
 62
     0
 10
42.7193
 20
23.654
 30
0.0
 11
42.7193
 21
37.6562
 31
0.0
  0
LINE
  8
0
 62
     0
 10
61.7693
 20
37.6562
 30
0.0
 11
75.77
 21
37.6562
 31
0.0
  0
LINE
  8
0
 62
     0
 10
75.77
 20
37.6562
 30
0.0
 11
75.77
 21
23.654
 31
0.0
  0
LINE
  8
0
 62
     0
 10
75.77
 20
23.654
 30
0.0
 11
61.7693
 21
23.654
 31
0.0
  0
LINE
  8
0
 62
     0
 10
61.7693
 20
23.654
 30
0.0
 11
61.7693
 21
37.6562
 31
0.0
  0
LINE
  8
0
 62
     0
 10
80.8193
 20
37.6562
 30
0.0
 11
94.82
 21
37.6562
 31
0.0
  0
LINE
  8
0
 62
     0
 10
94.82
 20
37.6562
 30
0.0
 11
94.82
 21
23.654
 31
0.0
  0
LINE
  8
0
 62
     0
 10
94.82
 20
23.654
 30
0.0
 11
80.8193
 21
23.654
 31
0.0
  0
LINE
  8
0
 62
     0
 10
80.8193
 20
23.654
 30
0.0
 11
80.8193
 21
37.6562
 31
0.0
  0
LINE
  8
0
 62
     0
 10
99.8693
 20
37.6562
 30
0.0
 11
113.869
 21
37.6562
 31
0.0
  0
LINE
  8
0
 62
     0
 10
113.869
 20
37.6562
 30
0.0
 11
113.869
 21
23.654
 31
0.0
  0
LINE
  8
0
 62
     0
 10
113.869
 20
23.654
 30
0.0
 11
99.8693
 21
23.654
 31
0.0
  0
LINE
  8
0
 62
     0
 10
99.8693
 20
23.654
 30
0.0
 11
99.8693
 21
37.6562
 31
0.0
  0
LINE
  8
0
 62
     0
 10
118.919
 20
37.6562
 30
0.0
 11
132.92
 21
37.6562
 31
0.0
  0
LINE
  8
0
 62
     0
 10
132.92
 20
37.6562
 30
0.0
 11
132.92
 21
23.654
 31
0.0
  0
LINE
  8
0
 62
     0
 10
132.92
 20
23.654
 30
0.0
 11
118.919
 21
23.654
 31
0.0
  0
LINE
  8
0
 62
     0
 10
118.919
 20
23.654
 30
0.0
 11
118.919
 21
37.6562
 31
0.0
  0
LINE
  8
0
 62
     0
 10
137.969
 20
37.6562
 30
0.0
 11
151.97
 21
37.6562
 31
0.0
  0
LINE
  8
0
 62
     0
 10
151.97
 20
37.6562
 30
0.0
 11
151.97
 21
23.654
 31
0.0
  0
LINE
  8
0
 62
     0
 10
151.97
 20
23.654
 30
0.0
 11
137.969
 21
23.654
 31
0.0
  0
LINE
  8
0
 62
     0
 10
137.969
 20
23.654
 30
0.0
 11
137.969
 21
37.6562
 31
0.0
  0
LINE
  8
0
 62
     0
 10
157.019
 20
37.6562
 30
0.0
 11
171.02
 21
37.6562
 31
0.0
  0
LINE
  8
0
 62
     0
 10
171.02
 20
37.6562
 30
0.0
 11
171.02
 21
23.654
 31
0.0
  0
LINE
  8
0
 62
     0
 10
171.02
 20
23.654
 30
0.0
 11
157.019
 21
23.654
 31
0.0
  0
LINE
  8
0
 62
     0
 10
157.019
 20
23.654
 30
0.0
 11
157.019
 21
37.6562
 31
0.0
  0
LINE
  8
0
 62
     0
 10
176.069
 20
37.6562
 30
0.0
 11
190.07
 21
37.6562
 31
0.0
  0
LINE
  8
0
 62
     0
 10
190.07
 20
37.6562
 30
0.0
 11
190.07
 21
23.654
 31
0.0
  0
LINE
  8
0
 62
     0
 10
190.07
 20
23.654
 30
0.0
 11
176.069
 21
23.654
 31
0.0
  0
LINE
  8
0
 62
     0
 10
176.069
 20
23.654
 30
0.0
 11
176.069
 21
37.6562
 31
0.0
  0
LINE
  8
0
 62
     0
 10
195.119
 20
37.6562
 30
0.0
 11
209.12
 21
37.6562
 31
0.0
  0
LINE
  8
0
 62
     0
 10
209.12
 20
37.6562
 30
0.0
 11
209.12
 21
23.654
 31
0.0
  0
LINE
  8
0
 62
     0
 10
209.12
 20
23.654
 30
0.0
 11
195.119
 21
23.654
 31
0.0
  0
LINE
  8
0
 62
     0
 10
195.119
 20
23.654
 30
0.0
 11
195.119
 21
37.6562
 31
0.0
  0
LINE
  8
0
 62
     0
 10
214.169
 20
37.6562
 30
0.0
 11
228.17
 21
37.6562
 31
0.0
  0
LINE
  8
0
 62
     0
 10
228.17
 20
37.6562
 30
0.0
 11
228.17
 21
23.654
 31
0.0
  0
LINE
  8
0
 62
     0
 10
228.17
 20
23.654
 30
0.0
 11
214.169
 21
23.654
 31
0.0
  0
LINE
  8
0
 62
     0
 10
214.169
 20
23.654
 30
0.0
 11
214.169
 21
37.6562
 31
0.0
  0
LINE
  8
0
 62
     0
 10
4.6192
 20
56.7062
 30
0.0
 11
18.6201
 21
56.7062
 31
0.0
  0
LINE
  8
0
 62
     0
 10
18.6201
 20
56.7062
 30
0.0
 11
18.6201
 21
42.7041
 31
0.0
  0
LINE
  8
0
 62
     0
 10
18.6201
 20
42.7041
 30
0.0
 11
4.6192
 21
42.7041
 31
0.0
  0
LINE
  8
0
 62
     0
 10
4.6192
 20
42.7041
 30
0.0
 11
4.6192
 21
56.7062
 31
0.0
  0
LINE
  8
0
 62
     0
 10
23.6692
 20
56.7062
 30
0.0
 11
37.67
 21
56.7062
 31
0.0
  0
LINE
  8
0
 62
     0
 10
37.67
 20
56.7062
 30
0.0
 11
37.67
 21
42.7041
 31
0.0
  0
LINE
  8
0
 62
     0
 10
37.67
 20
42.7041
 30
0.0
 11
23.6692
 21
42.7041
 31
0.0
  0
LINE
  8
0
 62
     0
 10
23.6692
 20
42.7041
 30
0.0
 11
23.6692
 21
56.7062
 31
0.0
  0
LINE
  8
0
 62
     0
 10
42.7193
 20
56.7062
 30
0.0
 11
56.72
 21
56.7062
 31
0.0
  0
LINE
  8
0
 62
     0
 10
56.72
 20
56.7062
 30
0.0
 11
56.72
 21
42.7041
 31
0.0
  0
LINE
  8
0
 62
     0
 10
56.72
 20
42.7041
 30
0.0
 11
42.7193
 21
42.7041
 31
0.0
  0
LINE
  8
0
 62
     0
 10
42.7193
 20
42.7041
 30
0.0
 11
42.7193
 21
56.7062
 31
0.0
  0
LINE
  8
0
 62
     0
 10
61.7693
 20
56.7062
 30
0.0
 11
75.77
 21
56.7062
 31
0.0
  0
LINE
  8
0
 62
     0
 10
75.77
 20
56.7062
 30
0.0
 11
75.77
 21
42.7041
 31
0.0
  0
LINE
  8
0
 62
     0
 10
75.77
 20
42.7041
 30
0.0
 11
61.7693
 21
42.7041
 31
0.0
  0
LINE
  8
0
 62
     0
 10
61.7693
 20
42.7041
 30
0.0
 11
61.7693
 21
56.7062
 31
0.0
  0
LINE
  8
0
 62
     0
 10
80.8193
 20
56.7062
 30
0.0
 11
94.82
 21
56.7062
 31
0.0
  0
LINE
  8
0
 62
     0
 10
94.82
 20
56.7062
 30
0.0
 11
94.82
 21
42.7041
 31
0.0
  0
LINE
  8
0
 62
     0
 10
94.82
 20
42.7041
 30
0.0
 11
80.8193
 21
42.7041
 31
0.0
  0
LINE
  8
0
 62
     0
 10
80.8193
 20
42.7041
 30
0.0
 11
80.8193
 21
56.7062
 31
0.0
  0
LINE
  8
0
 62
     0
 10
99.8693
 20
56.7062
 30
0.0
 11
113.869
 21
56.7062
 31
0.0
  0
LINE
  8
0
 62
     0
 10
113.869
 20
56.7062
 30
0.0
 11
113.869
 21
42.7041
 31
0.0
  0
LINE
  8
0
 62
     0
 10
113.869
 20
42.7041
 30
0.0
 11
99.8693
 21
42.7041
 31
0.0
  0
LINE
  8
0
 62
     0
 10
99.8693
 20
42.7041
 30
0.0
 11
99.8693
 21
56.7062
 31
0.0
  0
LINE
  8
0
 62
     0
 10
118.919
 20
56.7062
 30
0.0
 11
132.92
 21
56.7062
 31
0.0
  0
LINE
  8
0
 62
     0
 10
132.92
 20
56.7062
 30
0.0
 11
132.92
 21
42.7041
 31
0.0
  0
LINE
  8
0
 62
     0
 10
132.92
 20
42.7041
 30
0.0
 11
118.919
 21
42.7041
 31
0.0
  0
LINE
  8
0
 62
     0
 10
118.919
 20
42.7041
 30
0.0
 11
118.919
 21
56.7062
 31
0.0
  0
LINE
  8
0
 62
     0
 10
137.969
 20
56.7062
 30
0.0
 11
151.97
 21
56.7062
 31
0.0
  0
LINE
  8
0
 62
     0
 10
151.97
 20
56.7062
 30
0.0
 11
151.97
 21
42.7041
 31
0.0
  0
LINE
  8
0
 62
     0
 10
151.97
 20
42.7041
 30
0.0
 11
137.969
 21
42.7041
 31
0.0
  0
LINE
  8
0
 62
     0
 10
137.969
 20
42.7041
 30
0.0
 11
137.969
 21
56.7062
 31
0.0
  0
LINE
  8
0
 62
     0
 10
157.019
 20
56.7062
 30
0.0
 11
171.02
 21
56.7062
 31
0.0
  0
LINE
  8
0
 62
     0
 10
171.02
 20
56.7062
 30
0.0
 11
171.02
 21
42.7041
 31
0.0
  0
LINE
  8
0
 62
     0
 10
171.02
 20
42.7041
 30
0.0
 11
157.019
 21
42.7041
 31
0.0
  0
LINE
  8
0
 62
     0
 10
157.019
 20
42.7041
 30
0.0
 11
157.019
 21
56.7062
 31
0.0
  0
LINE
  8
0
 62
     0
 10
176.069
 20
56.7062
 30
0.0
 11
190.07
 21
56.7062
 31
0.0
  0
LINE
  8
0
 62
     0
 10
190.07
 20
56.7062
 30
0.0
 11
190.07
 21
42.7041
 31
0.0
  0
LINE
  8
0
 62
     0
 10
190.07
 20
42.7041
 30
0.0
 11
176.069
 21
42.7041
 31
0.0
  0
LINE
  8
0
 62
     0
 10
176.069
 20
42.7041
 30
0.0
 11
176.069
 21
56.7062
 31
0.0
  0
LINE
  8
0
 62
     0
 10
195.119
 20
56.7062
 30
0.0
 11
209.12
 21
56.7062
 31
0.0
  0
LINE
  8
0
 62
     0
 10
209.12
 20
56.7062
 30
0.0
 11
209.12
 21
42.7041
 31
0.0
  0
LINE
  8
0
 62
     0
 10
209.12
 20
42.7041
 30
0.0
 11
195.119
 21
42.7041
 31
0.0
  0
LINE
  8
0
 62
     0
 10
195.119
 20
42.7041
 30
0.0
 11
195.119
 21
56.7062
 31
0.0
  0
LINE
  8
0
 62
     0
 10
214.169
 20
56.7062
 30
0.0
 11
228.17
 21
56.7062
 31
0.0
  0
LINE
  8
0
 62
     0
 10
228.17
 20
56.7062
 30
0.0
 11
228.17
 21
42.7041
 31
0.0
  0
LINE
  8
0
 62
     0
 10
228.17
 20
42.7041
 30
0.0
 11
214.169
 21
42.7041
 31
0.0
  0
LINE
  8
0
 62
     0
 10
214.169
 20
42.7041
 30
0.0
 11
214.169
 21
56.7062
 31
0.0
  0
LINE
  8
0
 62
     0
 10
4.6192
 20
75.7562
 30
0.0
 11
18.6201
 21
75.7562
 31
0.0
  0
LINE
  8
0
 62
     0
 10
18.6201
 20
75.7562
 30
0.0
 11
18.6201
 21
61.7541
 31
0.0
  0
LINE
  8
0
 62
     0
 10
18.6201
 20
61.7541
 30
0.0
 11
4.6192
 21
61.7541
 31
0.0
  0
LINE
  8
0
 62
     0
 10
4.6192
 20
61.7541
 30
0.0
 11
4.6192
 21
75.7562
 31
0.0
  0
LINE
  8
0
 62
     0
 10
23.6692
 20
75.7562
 30
0.0
 11
37.67
 21
75.7562
 31
0.0
  0
LINE
  8
0
 62
     0
 10
37.67
 20
75.7562
 30
0.0
 11
37.67
 21
61.7541
 31
0.0
  0
LINE
  8
0
 62
     0
 10
37.67
 20
61.7541
 30
0.0
 11
23.6692
 21
61.7541
 31
0.0
  0
LINE
  8
0
 62
     0
 10
23.6692
 20
61.7541
 30
0.0
 11
23.6692
 21
75.7562
 31
0.0
  0
LINE
  8
0
 62
     0
 10
42.7193
 20
75.7562
 30
0.0
 11
56.72
 21
75.7562
 31
0.0
  0
LINE
  8
0
 62
     0
 10
56.72
 20
75.7562
 30
0.0
 11
56.72
 21
61.7541
 31
0.0
  0
LINE
  8
0
 62
     0
 10
56.72
 20
61.7541
 30
0.0
 11
42.7193
 21
61.7541
 31
0.0
  0
LINE
  8
0
 62
     0
 10
42.7193
 20
61.7541
 30
0.0
 11
42.7193
 21
75.7562
 31
0.0
  0
LINE
  8
0
 62
     0
 10
61.7693
 20
75.7562
 30
0.0
 11
75.77
 21
75.7562
 31
0.0
  0
LINE
  8
0
 62
     0
 10
75.77
 20
75.7562
 30
0.0
 11
75.77
 21
61.7541
 31
0.0
  0
LINE
  8
0
 62
     0
 10
75.77
 20
61.7541
 30
0.0
 11
61.7693
 21
61.7541
 31
0.0
  0
LINE
  8
0
 62
     0
 10
61.7693
 20
61.7541
 30
0.0
 11
61.7693
 21
75.7562
 31
0.0
  0
LINE
  8
0
 62
     0
 10
80.8193
 20
75.7562
 30
0.0
 11
94.82
 21
75.7562
 31
0.0
  0
LINE
  8
0
 62
     0
 10
94.82
 20
75.7562
 30
0.0
 11
94.82
 21
61.7541
 31
0.0
  0
LINE
  8
0
 62
     0
 10
94.82
 20
61.7541
 30
0.0
 11
80.8193
 21
61.7541
 31
0.0
  0
LINE
  8
0
 62
     0
 10
80.8193
 20
61.7541
 30
0.0
 11
80.8193
 21
75.7562
 31
0.0
  0
LINE
  8
0
 62
     0
 10
99.8693
 20
75.7562
 30
0.0
 11
113.869
 21
75.7562
 31
0.0
  0
LINE
  8
0
 62
     0
 10
113.869
 20
75.7562
 30
0.0
 11
113.869
 21
61.7541
 31
0.0
  0
LINE
  8
0
 62
     0
 10
113.869
 20
61.7541
 30
0.0
 11
99.8693
 21
61.7541
 31
0.0
  0
LINE
  8
0
 62
     0
 10
99.8693
 20
61.7541
 30
0.0
 11
99.8693
 21
75.7562
 31
0.0
  0
LINE
  8
0
 62
     0
 10
118.919
 20
75.7562
 30
0.0
 11
132.92
 21
75.7562
 31
0.0
  0
LINE
  8
0
 62
     0
 10
132.92
 20
75.7562
 30
0.0
 11
132.92
 21
61.7541
 31
0.0
  0
LINE
  8
0
 62
     0
 10
132.92
 20
61.7541
 30
0.0
 11
118.919
 21
61.7541
 31
0.0
  0
LINE
  8
0
 62
     0
 10
118.919
 20
61.7541
 30
0.0
 11
118.919
 21
75.7562
 31
0.0
  0
LINE
  8
0
 62
     0
 10
137.969
 20
75.7562
 30
0.0
 11
151.97
 21
75.7562
 31
0.0
  0
LINE
  8
0
 62
     0
 10
151.97
 20
75.7562
 30
0.0
 11
151.97
 21
61.7541
 31
0.0
  0
LINE
  8
0
 62
     0
 10
151.97
 20
61.7541
 30
0.0
 11
137.969
 21
61.7541
 31
0.0
  0
LINE
  8
0
 62
     0
 10
137.969
 20
61.7541
 30
0.0
 11
137.969
 21
75.7562
 31
0.0
  0
LINE
  8
0
 62
     0
 10
157.019
 20
75.7562
 30
0.0
 11
171.02
 21
75.7562
 31
0.0
  0
LINE
  8
0
 62
     0
 10
171.02
 20
75.7562
 30
0.0
 11
171.02
 21
61.7541
 31
0.0
  0
LINE
  8
0
 62
     0
 10
171.02
 20
61.7541
 30
0.0
 11
157.019
 21
61.7541
 31
0.0
  0
LINE
  8
0
 62
     0
 10
157.019
 20
61.7541
 30
0.0
 11
157.019
 21
75.7562
 31
0.0
  0
LINE
  8
0
 62
     0
 10
176.069
 20
75.7562
 30
0.0
 11
190.07
 21
75.7562
 31
0.0
  0
LINE
  8
0
 62
     0
 10
190.07
 20
75.7562
 30
0.0
 11
190.07
 21
61.7541
 31
0.0
  0
LINE
  8
0
 62
     0
 10
190.07
 20
61.7541
 30
0.0
 11
176.069
 21
61.7541
 31
0.0
  0
LINE
  8
0
 62
     0
 10
176.069
 20
61.7541
 30
0.0
 11
176.069
 21
75.7562
 31
0.0
  0
LINE
  8
0
 62
     0
 10
195.119
 20
75.7562
 30
0.0
 11
209.12
 21
75.7562
 31
0.0
  0
LINE
  8
0
 62
     0
 10
209.12
 20
75.7562
 30
0.0
 11
209.12
 21
61.7541
 31
0.0
  0
LINE
  8
0
 62
     0
 10
209.12
 20
61.7541
 30
0.0
 11
195.119
 21
61.7541
 31
0.0
  0
LINE
  8
0
 62
     0
 10
195.119
 20
61.7541
 30
0.0
 11
195.119
 21
75.7562
 31
0.0
  0
LINE
  8
0
 62
     0
 10
214.169
 20
75.7562
 30
0.0
 11
228.17
 21
75.7562
 31
0.0
  0
LINE
  8
0
 62
     0
 10
228.17
 20
75.7562
 30
0.0
 11
228.17
 21
61.7541
 31
0.0
  0
LINE
  8
0
 62
     0
 10
228.17
 20
61.7541
 30
0.0
 11
214.169
 21
61.7541
 31
0.0
  0
LINE
  8
0
 62
     0
 10
214.169
 20
61.7541
 30
0.0
 11
214.169
 21
75.7562
 31
0.0
  0
ENDSEC
  0
EOF
