<?xml version="1.0"?>
<!-- Generated by SVGo -->
<svg width="242.602mm" height="90.202mm"
     viewBox="0.000 0.000 242.602 90.202"
     xmlns="http://www.w3.org/2000/svg" 
     xmlns:xlink="http://www.w3.org/1999/xlink">
<polygon points="235.602,5.001 235.758,5.007 235.914,5.025 236.068,5.056 236.220,5.098 236.367,5.153 236.509,5.218 236.646,5.295 236.777,5.382 236.900,5.480 237.016,5.586 237.122,5.702 237.220,5.825 237.307,5.956 237.384,6.093 237.449,6.235 237.504,6.382 237.546,6.534 237.577,6.688 237.595,6.844 237.602,7.001 237.602,83.202 237.595,83.358 237.577,83.514 237.546,83.668 237.504,83.820 237.449,83.967 237.384,84.109 237.307,84.246 237.220,84.377 237.122,84.500 237.016,84.616 236.900,84.722 236.777,84.820 236.646,84.907 236.509,84.984 236.367,85.049 236.220,85.104 236.068,85.146 235.914,85.177 235.758,85.195 235.602,85.201 7.001,85.202 6.844,85.195 6.688,85.177 6.534,85.146 6.382,85.104 6.235,85.049 6.093,84.984 5.956,84.907 5.825,84.820 5.702,84.722 5.586,84.616 5.480,84.500 5.382,84.377 5.295,84.246 5.218,84.109 5.153,83.967 5.098,83.820 5.056,83.668 5.025,83.514 5.007,83.358 5.000,83.202 5.001,7.001 5.007,6.844 5.025,6.688 5.056,6.534 5.098,6.382 5.153,6.235 5.218,6.093 5.295,5.956 5.382,5.825 5.480,5.702 5.586,5.586 5.702,5.480 5.825,5.382 5.956,5.295 6.093,5.218 6.235,5.153 6.382,5.098 6.534,5.056 6.688,5.025 6.844,5.007 7.001,5.000" style="fill:none;stroke-width:0.050000mm;stroke:black"/>
<polygon points="114.301,66.676 114.301,71.376 112.775,71.376 112.775,68.146 106.025,68.146 106.025,71.376 105.200,71.376 105.200,74.176 106.025,74.176 106.025,80.446 107.751,80.446 107.751,81.646 111.051,81.646 111.051,80.446 112.775,80.446 112.775,75.976 114.301,75.976 114.301,80.676 128.301,80.676 128.301,75.976 129.825,75.976 129.825,80.446 131.551,80.446 131.551,81.646 134.851,81.646 134.851,80.446 136.576,80.446 136.576,74.176 137.401,74.176 137.401,71.376 136.576,71.376 136.576,68.146 129.825,68.146 129.825,71.376 128.301,71.376 128.301,66.676" style="fill:none;stroke-width:0.050000mm;stroke:black"/>
<polygon points="9.525,66.676 9.525,80.676 23.526,80.676 23.526,66.676" style="fill:none;stroke-width:0.050000mm;stroke:black"/>
<polygon points="28.576,66.676 28.576,80.676 42.576,80.676 42.576,66.676" style="fill:none;stroke-width:0.050000mm;stroke:black"/>
<polygon points="47.626,66.676 47.626,80.676 61.626,80.676 61.626,66.676" style="fill:none;stroke-width:0.050000mm;stroke:black"/>
<polygon points="66.676,66.676 66.676,80.676 80.676,80.676 80.676,66.676" style="fill:none;stroke-width:0.050000mm;stroke:black"/>
<polygon points="85.726,66.676 85.726,80.676 99.726,80.676 99.726,66.676" style="fill:none;stroke-width:0.050000mm;stroke:black"/>
<polygon points="142.876,66.676 142.876,80.676 156.876,80.676 156.876,66.676" style="fill:none;stroke-width:0.050000mm;stroke:black"/>
<polygon points="161.926,66.676 161.926,80.676 175.926,80.676 175.926,66.676" style="fill:none;stroke-width:0.050000mm;stroke:black"/>
<polygon points="180.976,66.676 180.976,80.676 194.976,80.676 194.976,66.676" style="fill:none;stroke-width:0.050000mm;stroke:black"/>
<polygon points="200.026,66.676 200.026,80.676 214.026,80.676 214.026,66.676" style="fill:none;stroke-width:0.050000mm;stroke:black"/>
<polygon points="219.076,66.676 219.076,80.676 233.076,80.676 233.076,66.676" style="fill:none;stroke-width:0.050000mm;stroke:black"/>
<polygon points="9.525,47.626 9.525,61.626 23.526,61.626 23.526,47.626" style="fill:none;stroke-width:0.050000mm;stroke:black"/>
<polygon points="28.576,47.626 28.576,61.626 42.576,61.626 42.576,47.626" style="fill:none;stroke-width:0.050000mm;stroke:black"/>
<polygon points="47.626,47.626 47.626,61.626 61.626,61.626 61.626,47.626" style="fill:none;stroke-width:0.050000mm;stroke:black"/>
<polygon points="66.676,47.626 66.676,61.626 80.676,61.626 80.676,47.626" style="fill:none;stroke-width:0.050000mm;stroke:black"/>
<polygon points="85.726,47.626 85.726,61.626 99.726,61.626 99.726,47.626" style="fill:none;stroke-width:0.050000mm;stroke:black"/>
<polygon points="104.775,47.626 104.775,61.626 118.775,61.626 118.775,47.626" style="fill:none;stroke-width:0.050000mm;stroke:black"/>
<polygon points="123.825,47.626 123.825,61.626 137.826,61.626 137.826,47.626" style="fill:none;stroke-width:0.050000mm;stroke:black"/>
<polygon points="142.876,47.626 142.876,61.626 156.876,61.626 156.876,47.626" style="fill:none;stroke-width:0.050000mm;stroke:black"/>
<polygon points="161.926,47.626 161.926,61.626 175.926,61.626 175.926,47.626" style="fill:none;stroke-width:0.050000mm;stroke:black"/>
<polygon points="180.976,47.626 180.976,61.626 194.976,61.626 194.976,47.626" style="fill:none;stroke-width:0.050000mm;stroke:black"/>
<polygon points="200.026,47.626 200.026,61.626 214.026,61.626 214.026,47.626" style="fill:none;stroke-width:0.050000mm;stroke:black"/>
<polygon points="219.076,47.626 219.076,61.626 233.076,61.626 233.076,47.626" style="fill:none;stroke-width:0.050000mm;stroke:black"/>
<polygon points="9.525,28.576 9.525,42.576 23.526,42.576 23.526,28.576" style="fill:none;stroke-width:0.050000mm;stroke:black"/>
<polygon points="28.576,28.576 28.576,42.576 42.576,42.576 42.576,28.576" style="fill:none;stroke-width:0.050000mm;stroke:black"/>
<polygon points="47.626,28.576 47.626,42.576 61.626,42.576 61.626,28.576" style="fill:none;stroke-width:0.050000mm;stroke:black"/>
<polygon points="66.676,28.576 66.676,42.576 80.676,42.576 80.676,28.576" style="fill:none;stroke-width:0.050000mm;stroke:black"/>
<polygon points="85.726,28.576 85.726,42.576 99.726,42.576 99.726,28.576" style="fill:none;stroke-width:0.050000mm;stroke:black"/>
<polygon points="104.775,28.576 104.775,42.576 118.775,42.576 118.775,28.576" style="fill:none;stroke-width:0.050000mm;stroke:black"/>
<polygon points="123.825,28.576 123.825,42.576 137.826,42.576 137.826,28.576" style="fill:none;stroke-width:0.050000mm;stroke:black"/>
<polygon points="142.876,28.576 142.876,42.576 156.876,42.576 156.876,28.576" style="fill:none;stroke-width:0.050000mm;stroke:black"/>
<polygon points="161.926,28.576 161.926,42.576 175.926,42.576 175.926,28.576" style="fill:none;stroke-width:0.050000mm;stroke:black"/>
<polygon points="180.976,28.576 180.976,42.576 194.976,42.576 194.976,28.576" style="fill:none;stroke-width:0.050000mm;stroke:black"/>
<polygon points="200.026,28.576 200.026,42.576 214.026,42.576 214.026,28.576" style="fill:none;stroke-width:0.050000mm;stroke:black"/>
<polygon points="219.076,28.576 219.076,42.576 233.076,42.576 233.076,28.576" style="fill:none;stroke-width:0.050000mm;stroke:black"/>
<polygon points="9.525,9.525 9.525,23.526 23.526,23.526 23.526,9.525" style="fill:none;stroke-width:0.050000mm;stroke:black"/>
<polygon points="28.576,9.525 28.576,23.526 42.576,23.526 42.576,9.525" style="fill:none;stroke-width:0.050000mm;stroke:black"/>
<polygon points="47.626,9.525 47.626,23.526 61.626,23.526 61.626,9.525" style="fill:none;stroke-width:0.050000mm;stroke:black"/>
<polygon points="66.676,9.525 66.676,23.526 80.676,23.526 80.676,9.525" style="fill:none;stroke-width:0.050000mm;stroke:black"/>
<polygon points="85.726,9.525 85.726,23.526 99.726,23.526 99.726,9.525" style="fill:none;stroke-width:0.050000mm;stroke:black"/>
<polygon points="104.775,9.525 104.775,23.526 118.775,23.526 118.775,9.525" style="fill:none;stroke-width:0.050000mm;stroke:black"/>
<polygon points="123.825,9.525 123.825,23.526 137.826,23.526 137.826,9.525" style="fill:none;stroke-width:0.050000mm;stroke:black"/>
<polygon points="142.876,9.525 142.876,23.526 156.876,23.526 156.876,9.525" style="fill:none;stroke-width:0.050000mm;stroke:black"/>
<polygon points="161.926,9.525 161.926,23.526 175.926,23.526 175.926,9.525" style="fill:none;stroke-width:0.050000mm;stroke:black"/>
<polygon points="180.976,9.525 180.976,23.526 194.976,23.526 194.976,9.525" style="fill:none;stroke-width:0.050000mm;stroke:black"/>
<polygon points="200.026,9.525 200.026,23.526 214.026,23.526 214.026,9.525" style="fill:none;stroke-width:0.050000mm;stroke:black"/>
<polygon points="219.076,9.525 219.076,23.526 233.076,23.526 233.076,9.525" style="fill:none;stroke-width:0.050000mm;stroke:black"/>
</svg>
