<?xml version="1.0"?>
<!-- Generated by SVGo -->
<svg width="248.602mm" height="96.202mm"
     viewBox="0.000 0.000 248.602 96.202"
     xmlns="http://www.w3.org/2000/svg" 
     xmlns:xlink="http://www.w3.org/1999/xlink">
<polygon points="241.602,5.001 241.758,5.007 241.914,5.025 242.068,5.056 242.220,5.098 242.367,5.153 242.509,5.218 242.646,5.295 242.777,5.382 242.900,5.480 243.016,5.586 243.122,5.702 243.220,5.825 243.307,5.956 243.384,6.093 243.449,6.235 243.504,6.382 243.546,6.534 243.577,6.688 243.595,6.844 243.602,7.001 243.602,89.202 243.595,89.358 243.577,89.514 243.546,89.668 243.504,89.820 243.449,89.967 243.384,90.109 243.307,90.246 243.220,90.377 243.122,90.500 243.016,90.616 242.900,90.722 242.777,90.820 242.646,90.907 242.509,90.984 242.367,91.049 242.220,91.104 242.068,91.146 241.914,91.177 241.758,91.195 241.602,91.201 7.001,91.202 6.844,91.195 6.688,91.177 6.534,91.146 6.382,91.104 6.235,91.049 6.093,90.984 5.956,90.907 5.825,90.820 5.702,90.722 5.586,90.616 5.480,90.500 5.382,90.377 5.295,90.246 5.218,90.109 5.153,89.967 5.098,89.820 5.056,89.668 5.025,89.514 5.007,89.358 5.000,89.202 5.001,7.001 5.007,6.844 5.025,6.688 5.056,6.534 5.098,6.382 5.153,6.235 5.218,6.093 5.295,5.956 5.382,5.825 5.480,5.702 5.586,5.586 5.702,5.480 5.825,5.382 5.956,5.295 6.093,5.218 6.235,5.153 6.382,5.098 6.534,5.056 6.688,5.025 6.844,5.007 7.001,5.000" style="fill:none;stroke-width:0.050000mm;stroke:black"/>
<polygon points="117.301,69.676 117.301,74.376 115.775,74.376 115.775,71.146 114.051,71.146 114.051,70.226 110.751,70.226 110.751,71.146 109.025,71.146 109.025,74.376 108.200,74.376 108.200,77.176 109.025,77.176 109.025,83.446 110.751,83.446 110.751,84.426 114.051,84.426 114.051,83.446 115.775,83.446 115.775,78.976 117.301,78.976 117.301,83.676 131.301,83.676 131.301,78.976 132.826,78.976 132.826,83.446 134.551,83.446 134.551,84.426 137.851,84.426 137.851,83.446 139.576,83.446 139.576,77.176 140.401,77.176 140.401,74.376 139.576,74.376 139.576,71.146 137.851,71.146 137.851,70.226 134.551,70.226 134.551,71.146 132.826,71.146 132.826,74.376 131.301,74.376 131.301,69.676" style="fill:none;stroke-width:0.050000mm;stroke:black"/>
<polygon points="12.525,69.676 12.525,83.676 26.526,83.676 26.526,69.676" style="fill:none;stroke-width:0.050000mm;stroke:black"/>
<polygon points="31.576,69.676 31.576,83.676 45.576,83.676 45.576,69.676" style="fill:none;stroke-width:0.050000mm;stroke:black"/>
<polygon points="50.626,69.676 50.626,83.676 64.626,83.676 64.626,69.676" style="fill:none;stroke-width:0.050000mm;stroke:black"/>
<polygon points="69.676,69.676 69.676,83.676 83.676,83.676 83.676,69.676" style="fill:none;stroke-width:0.050000mm;stroke:black"/>
<polygon points="88.726,69.676 88.726,83.676 102.726,83.676 102.726,69.676" style="fill:none;stroke-width:0.050000mm;stroke:black"/>
<polygon points="145.876,69.676 145.876,83.676 159.876,83.676 159.876,69.676" style="fill:none;stroke-width:0.050000mm;stroke:black"/>
<polygon points="164.926,69.676 164.926,83.676 178.926,83.676 178.926,69.676" style="fill:none;stroke-width:0.050000mm;stroke:black"/>
<polygon points="183.976,69.676 183.976,83.676 197.976,83.676 197.976,69.676" style="fill:none;stroke-width:0.050000mm;stroke:black"/>
<polygon points="203.026,69.676 203.026,83.676 217.026,83.676 217.026,69.676" style="fill:none;stroke-width:0.050000mm;stroke:black"/>
<polygon points="222.076,69.676 222.076,83.676 236.076,83.676 236.076,69.676" style="fill:none;stroke-width:0.050000mm;stroke:black"/>
<polygon points="12.525,50.626 12.525,64.626 26.526,64.626 26.526,50.626" style="fill:none;stroke-width:0.050000mm;stroke:black"/>
<polygon points="31.576,50.626 31.576,64.626 45.576,64.626 45.576,50.626" style="fill:none;stroke-width:0.050000mm;stroke:black"/>
<polygon points="50.626,50.626 50.626,64.626 64.626,64.626 64.626,50.626" style="fill:none;stroke-width:0.050000mm;stroke:black"/>
<polygon points="69.676,50.626 69.676,64.626 83.676,64.626 83.676,50.626" style="fill:none;stroke-width:0.050000mm;stroke:black"/>
<polygon points="88.726,50.626 88.726,64.626 102.726,64.626 102.726,50.626" style="fill:none;stroke-width:0.050000mm;stroke:black"/>
<polygon points="107.775,50.626 107.775,64.626 121.775,64.626 121.775,50.626" style="fill:none;stroke-width:0.050000mm;stroke:black"/>
<polygon points="126.825,50.626 126.825,64.626 140.826,64.626 140.826,50.626" style="fill:none;stroke-width:0.050000mm;stroke:black"/>
<polygon points="145.876,50.626 145.876,64.626 159.876,64.626 159.876,50.626" style="fill:none;stroke-width:0.050000mm;stroke:black"/>
<polygon points="164.926,50.626 164.926,64.626 178.926,64.626 178.926,50.626" style="fill:none;stroke-width:0.050000mm;stroke:black"/>
<polygon points="183.976,50.626 183.976,64.626 197.976,64.626 197.976,50.626" style="fill:none;stroke-width:0.050000mm;stroke:black"/>
<polygon points="203.026,50.626 203.026,64.626 217.026,64.626 217.026,50.626" style="fill:none;stroke-width:0.050000mm;stroke:black"/>
<polygon points="222.076,50.626 222.076,64.626 236.076,64.626 236.076,50.626" style="fill:none;stroke-width:0.050000mm;stroke:black"/>
<polygon points="12.525,31.576 12.525,45.576 26.526,45.576 26.526,31.576" style="fill:none;stroke-width:0.050000mm;stroke:black"/>
<polygon points="31.576,31.576 31.576,45.576 45.576,45.576 45.576,31.576" style="fill:none;stroke-width:0.050000mm;stroke:black"/>
<polygon points="50.626,31.576 50.626,45.576 64.626,45.576 64.626,31.576" style="fill:none;stroke-width:0.050000mm;stroke:black"/>
<polygon points="69.676,31.576 69.676,45.576 83.676,45.576 83.676,31.576" style="fill:none;stroke-width:0.050000mm;stroke:black"/>
<polygon points="88.726,31.576 88.726,45.576 102.726,45.576 102.726,31.576" style="fill:none;stroke-width:0.050000mm;stroke:black"/>
<polygon points="107.775,31.576 107.775,45.576 121.775,45.576 121.775,31.576" style="fill:none;stroke-width:0.050000mm;stroke:black"/>
<polygon points="126.825,31.576 126.825,45.576 140.826,45.576 140.826,31.576" style="fill:none;stroke-width:0.050000mm;stroke:black"/>
<polygon points="145.876,31.576 145.876,45.576 159.876,45.576 159.876,31.576" style="fill:none;stroke-width:0.050000mm;stroke:black"/>
<polygon points="164.926,31.576 164.926,45.576 178.926,45.576 178.926,31.576" style="fill:none;stroke-width:0.050000mm;stroke:black"/>
<polygon points="183.976,31.576 183.976,45.576 197.976,45.576 197.976,31.576" style="fill:none;stroke-width:0.050000mm;stroke:black"/>
<polygon points="203.026,31.576 203.026,45.576 217.026,45.576 217.026,31.576" style="fill:none;stroke-width:0.050000mm;stroke:black"/>
<polygon points="222.076,31.576 222.076,45.576 236.076,45.576 236.076,31.576" style="fill:none;stroke-width:0.050000mm;stroke:black"/>
<polygon points="12.525,12.525 12.525,26.526 26.526,26.526 26.526,12.525" style="fill:none;stroke-width:0.050000mm;stroke:black"/>
<polygon points="31.576,12.525 31.576,26.526 45.576,26.526 45.576,12.525" style="fill:none;stroke-width:0.050000mm;stroke:black"/>
<polygon points="50.626,12.525 50.626,26.526 64.626,26.526 64.626,12.525" style="fill:none;stroke-width:0.050000mm;stroke:black"/>
<polygon points="69.676,12.525 69.676,26.526 83.676,26.526 83.676,12.525" style="fill:none;stroke-width:0.050000mm;stroke:black"/>
<polygon points="88.726,12.525 88.726,26.526 102.726,26.526 102.726,12.525" style="fill:none;stroke-width:0.050000mm;stroke:black"/>
<polygon points="107.775,12.525 107.775,26.526 121.775,26.526 121.775,12.525" style="fill:none;stroke-width:0.050000mm;stroke:black"/>
<polygon points="126.825,12.525 126.825,26.526 140.826,26.526 140.826,12.525" style="fill:none;stroke-width:0.050000mm;stroke:black"/>
<polygon points="145.876,12.525 145.876,26.526 159.876,26.526 159.876,12.525" style="fill:none;stroke-width:0.050000mm;stroke:black"/>
<polygon points="164.926,12.525 164.926,26.526 178.926,26.526 178.926,12.525" style="fill:none;stroke-width:0.050000mm;stroke:black"/>
<polygon points="183.976,12.525 183.976,26.526 197.976,26.526 197.976,12.525" style="fill:none;stroke-width:0.050000mm;stroke:black"/>
<polygon points="203.026,12.525 203.026,26.526 217.026,26.526 217.026,12.525" style="fill:none;stroke-width:0.050000mm;stroke:black"/>
<polygon points="222.076,12.525 222.076,26.526 236.076,26.526 236.076,12.525" style="fill:none;stroke-width:0.050000mm;stroke:black"/>
</svg>
