  0
SECTION
  2
HEADER
  9
$ACADVER
  1
AC1009
  9
$EXTMIN
 10
0.0
 20
0.0
 30
0.0
  9
$EXTMAX
 10
1000.0
 20
1000.0
 30
0.0
  9
$FILLMODE
 70
 0
  9
$SPLFRAME
 70
 1
  0
ENDSEC
  0
SECTION
  2
TABLES
  0
TABLE
  2
LAYER
 70
1
  0
LAYER
  2
0
 70
     0
 62
     7
  6
CONTINUOUS
  0
ENDTAB
  0
ENDSEC
  0
SECTION
  2
ENTITIES
  0
LINE
  8
0
 62
     0
 10
236.696
 20
86.2803
 30
0.0
 11
236.852
 21
86.275
 31
0.0
  0
LINE
  8
0
 62
     0
 10
236.852
 20
86.275
 30
0.0
 11
237.007
 21
86.257
 31
0.0
  0
LINE
  8
0
 62
     0
 10
237.007
 20
86.257
 30
0.0
 11
237.162
 21
86.2252
 31
0.0
  0
LINE
  8
0
 62
     0
 10
237.162
 20
86.2252
 30
0.0
 11
237.313
 21
86.184
 31
0.0
  0
LINE
  8
0
 62
     0
 10
237.313
 20
86.184
 30
0.0
 11
237.461
 21
86.1289
 31
0.0
  0
LINE
  8
0
 62
     0
 10
237.461
 20
86.1289
 30
0.0
 11
237.603
 21
86.064
 31
0.0
  0
LINE
  8
0
 62
     0
 10
237.603
 20
86.064
 30
0.0
 11
237.739
 21
85.9868
 31
0.0
  0
LINE
  8
0
 62
     0
 10
237.739
 20
85.9868
 30
0.0
 11
237.87
 21
85.9
 31
0.0
  0
LINE
  8
0
 62
     0
 10
237.87
 20
85.9
 30
0.0
 11
237.994
 21
85.8023
 31
0.0
  0
LINE
  8
0
 62
     0
 10
237.994
 20
85.8023
 30
0.0
 11
238.11
 21
85.6961
 31
0.0
  0
LINE
  8
0
 62
     0
 10
238.11
 20
85.6961
 30
0.0
 11
238.216
 21
85.5804
 31
0.0
  0
LINE
  8
0
 62
     0
 10
238.216
 20
85.5804
 30
0.0
 11
238.314
 21
85.4562
 31
0.0
  0
LINE
  8
0
 62
     0
 10
238.314
 20
85.4562
 30
0.0
 11
238.401
 21
85.3253
 31
0.0
  0
LINE
  8
0
 62
     0
 10
238.401
 20
85.3253
 30
0.0
 11
238.478
 21
85.1888
 31
0.0
  0
LINE
  8
0
 62
     0
 10
238.478
 20
85.1888
 30
0.0
 11
238.543
 21
85.047
 31
0.0
  0
LINE
  8
0
 62
     0
 10
238.543
 20
85.047
 30
0.0
 11
238.598
 21
84.8995
 31
0.0
  0
LINE
  8
0
 62
     0
 10
238.598
 20
84.8995
 30
0.0
 11
238.64
 21
84.7478
 31
0.0
  0
LINE
  8
0
 62
     0
 10
238.64
 20
84.7478
 30
0.0
 11
238.671
 21
84.5936
 31
0.0
  0
LINE
  8
0
 62
     0
 10
238.671
 20
84.5936
 30
0.0
 11
238.689
 21
84.4381
 31
0.0
  0
LINE
  8
0
 62
     0
 10
238.689
 20
84.4381
 30
0.0
 11
238.695
 21
84.2807
 31
0.0
  0
LINE
  8
0
 62
     0
 10
238.695
 20
84.2807
 30
0.0
 11
238.695
 21
2.07946
 31
0.0
  0
LINE
  8
0
 62
     0
 10
238.695
 20
2.07946
 30
0.0
 11
238.689
 21
1.92374
 31
0.0
  0
LINE
  8
0
 62
     0
 10
238.689
 20
1.92374
 30
0.0
 11
238.671
 21
1.76802
 31
0.0
  0
LINE
  8
0
 62
     0
 10
238.671
 20
1.76802
 30
0.0
 11
238.64
 21
1.61368
 31
0.0
  0
LINE
  8
0
 62
     0
 10
238.64
 20
1.61368
 30
0.0
 11
238.598
 21
1.4621
 31
0.0
  0
LINE
  8
0
 62
     0
 10
238.598
 20
1.4621
 30
0.0
 11
238.543
 21
1.31465
 31
0.0
  0
LINE
  8
0
 62
     0
 10
238.543
 20
1.31465
 30
0.0
 11
238.478
 21
1.17271
 31
0.0
  0
LINE
  8
0
 62
     0
 10
238.478
 20
1.17271
 30
0.0
 11
238.401
 21
1.03628
 31
0.0
  0
LINE
  8
0
 62
     0
 10
238.401
 20
1.03628
 30
0.0
 11
238.314
 21
0.905372
 31
0.0
  0
LINE
  8
0
 62
     0
 10
238.314
 20
0.905372
 30
0.0
 11
238.216
 21
0.781346
 31
0.0
  0
LINE
  8
0
 62
     0
 10
238.216
 20
0.781346
 30
0.0
 11
238.11
 21
0.665593
 31
0.0
  0
LINE
  8
0
 62
     0
 10
238.11
 20
0.665593
 30
0.0
 11
237.994
 21
0.559484
 31
0.0
  0
LINE
  8
0
 62
     0
 10
237.994
 20
0.559484
 30
0.0
 11
237.87
 21
0.461641
 31
0.0
  0
LINE
  8
0
 62
     0
 10
237.87
 20
0.461641
 30
0.0
 11
237.739
 21
0.374826
 31
0.0
  0
LINE
  8
0
 62
     0
 10
237.739
 20
0.374826
 30
0.0
 11
237.603
 21
0.297656
 31
0.0
  0
LINE
  8
0
 62
     0
 10
237.603
 20
0.297656
 30
0.0
 11
237.461
 21
0.232888
 31
0.0
  0
LINE
  8
0
 62
     0
 10
237.461
 20
0.232888
 30
0.0
 11
237.313
 21
0.177767
 31
0.0
  0
LINE
  8
0
 62
     0
 10
237.313
 20
0.177767
 30
0.0
 11
237.162
 21
0.135048
 31
0.0
  0
LINE
  8
0
 62
     0
 10
237.162
 20
0.135048
 30
0.0
 11
237.007
 21
0.104731
 31
0.0
  0
LINE
  8
0
 62
     0
 10
237.007
 20
0.104731
 30
0.0
 11
236.852
 21
0.0868165
 31
0.0
  0
LINE
  8
0
 62
     0
 10
236.852
 20
0.0868165
 30
0.0
 11
236.696
 21
0.0813043
 31
0.0
  0
LINE
  8
0
 62
     0
 10
236.696
 20
0.0813043
 30
0.0
 11
2.09462
 21
0.0799264
 31
0.0
  0
LINE
  8
0
 62
     0
 10
2.09462
 20
0.0799264
 30
0.0
 11
1.93752
 21
0.0868165
 31
0.0
  0
LINE
  8
0
 62
     0
 10
1.93752
 20
0.0868165
 30
0.0
 11
1.7818
 21
0.104731
 31
0.0
  0
LINE
  8
0
 62
     0
 10
1.7818
 20
0.104731
 30
0.0
 11
1.62746
 21
0.135048
 31
0.0
  0
LINE
  8
0
 62
     0
 10
1.62746
 20
0.135048
 30
0.0
 11
1.47588
 21
0.177767
 31
0.0
  0
LINE
  8
0
 62
     0
 10
1.47588
 20
0.177767
 30
0.0
 11
1.32843
 21
0.232888
 31
0.0
  0
LINE
  8
0
 62
     0
 10
1.32843
 20
0.232888
 30
0.0
 11
1.18649
 21
0.297656
 31
0.0
  0
LINE
  8
0
 62
     0
 10
1.18649
 20
0.297656
 30
0.0
 11
1.05006
 21
0.374826
 31
0.0
  0
LINE
  8
0
 62
     0
 10
1.05006
 20
0.374826
 30
0.0
 11
0.919152
 21
0.461641
 31
0.0
  0
LINE
  8
0
 62
     0
 10
0.919152
 20
0.461641
 30
0.0
 11
0.795129
 21
0.559484
 31
0.0
  0
LINE
  8
0
 62
     0
 10
0.795129
 20
0.559484
 30
0.0
 11
0.679372
 21
0.665593
 31
0.0
  0
LINE
  8
0
 62
     0
 10
0.679372
 20
0.665593
 30
0.0
 11
0.573264
 21
0.781346
 31
0.0
  0
LINE
  8
0
 62
     0
 10
0.573264
 20
0.781346
 30
0.0
 11
0.475424
 21
0.905372
 31
0.0
  0
LINE
  8
0
 62
     0
 10
0.475424
 20
0.905372
 30
0.0
 11
0.388606
 21
1.03628
 31
0.0
  0
LINE
  8
0
 62
     0
 10
0.388606
 20
1.03628
 30
0.0
 11
0.311437
 21
1.17271
 31
0.0
  0
LINE
  8
0
 62
     0
 10
0.311437
 20
1.17271
 30
0.0
 11
0.246669
 21
1.31465
 31
0.0
  0
LINE
  8
0
 62
     0
 10
0.246669
 20
1.31465
 30
0.0
 11
0.191547
 21
1.4621
 31
0.0
  0
LINE
  8
0
 62
     0
 10
0.191547
 20
1.4621
 30
0.0
 11
0.150206
 21
1.61368
 31
0.0
  0
LINE
  8
0
 62
     0
 10
0.150206
 20
1.61368
 30
0.0
 11
0.118511
 21
1.76802
 31
0.0
  0
LINE
  8
0
 62
     0
 10
0.118511
 20
1.76802
 30
0.0
 11
0.100597
 21
1.92374
 31
0.0
  0
LINE
  8
0
 62
     0
 10
0.100597
 20
1.92374
 30
0.0
 11
0.0937066
 21
2.07946
 31
0.0
  0
LINE
  8
0
 62
     0
 10
0.0937066
 20
2.07946
 30
0.0
 11
0.0950846
 21
84.2807
 31
0.0
  0
LINE
  8
0
 62
     0
 10
0.0950846
 20
84.2807
 30
0.0
 11
0.100597
 21
84.4381
 31
0.0
  0
LINE
  8
0
 62
     0
 10
0.100597
 20
84.4381
 30
0.0
 11
0.118511
 21
84.5936
 31
0.0
  0
LINE
  8
0
 62
     0
 10
0.118511
 20
84.5936
 30
0.0
 11
0.150206
 21
84.7478
 31
0.0
  0
LINE
  8
0
 62
     0
 10
0.150206
 20
84.7478
 30
0.0
 11
0.191547
 21
84.8995
 31
0.0
  0
LINE
  8
0
 62
     0
 10
0.191547
 20
84.8995
 30
0.0
 11
0.246669
 21
85.047
 31
0.0
  0
LINE
  8
0
 62
     0
 10
0.246669
 20
85.047
 30
0.0
 11
0.311437
 21
85.1888
 31
0.0
  0
LINE
  8
0
 62
     0
 10
0.311437
 20
85.1888
 30
0.0
 11
0.388606
 21
85.3253
 31
0.0
  0
LINE
  8
0
 62
     0
 10
0.388606
 20
85.3253
 30
0.0
 11
0.475424
 21
85.4562
 31
0.0
  0
LINE
  8
0
 62
     0
 10
0.475424
 20
85.4562
 30
0.0
 11
0.573264
 21
85.5804
 31
0.0
  0
LINE
  8
0
 62
     0
 10
0.573264
 20
85.5804
 30
0.0
 11
0.679372
 21
85.6961
 31
0.0
  0
LINE
  8
0
 62
     0
 10
0.679372
 20
85.6961
 30
0.0
 11
0.795129
 21
85.8023
 31
0.0
  0
LINE
  8
0
 62
     0
 10
0.795129
 20
85.8023
 30
0.0
 11
0.919152
 21
85.9
 31
0.0
  0
LINE
  8
0
 62
     0
 10
0.919152
 20
85.9
 30
0.0
 11
1.05006
 21
85.9868
 31
0.0
  0
LINE
  8
0
 62
     0
 10
1.05006
 20
85.9868
 30
0.0
 11
1.18649
 21
86.064
 31
0.0
  0
LINE
  8
0
 62
     0
 10
1.18649
 20
86.064
 30
0.0
 11
1.32843
 21
86.1289
 31
0.0
  0
LINE
  8
0
 62
     0
 10
1.32843
 20
86.1289
 30
0.0
 11
1.47588
 21
86.184
 31
0.0
  0
LINE
  8
0
 62
     0
 10
1.47588
 20
86.184
 30
0.0
 11
1.62746
 21
86.2252
 31
0.0
  0
LINE
  8
0
 62
     0
 10
1.62746
 20
86.2252
 30
0.0
 11
1.7818
 21
86.257
 31
0.0
  0
LINE
  8
0
 62
     0
 10
1.7818
 20
86.257
 30
0.0
 11
1.93752
 21
86.275
 31
0.0
  0
LINE
  8
0
 62
     0
 10
1.93752
 20
86.275
 30
0.0
 11
2.09462
 21
86.2817
 31
0.0
  0
LINE
  8
0
 62
     0
 10
2.09462
 20
86.2817
 30
0.0
 11
236.696
 21
86.2803
 31
0.0
  0
LINE
  8
0
 62
     0
 10
112.394
 20
21.6063
 30
0.0
 11
112.394
 21
16.9058
 31
0.0
  0
LINE
  8
0
 62
     0
 10
112.394
 20
16.9058
 30
0.0
 11
110.869
 21
16.9058
 31
0.0
  0
LINE
  8
0
 62
     0
 10
110.869
 20
16.9058
 30
0.0
 11
110.869
 21
20.1359
 31
0.0
  0
LINE
  8
0
 62
     0
 10
110.869
 20
20.1359
 30
0.0
 11
109.145
 21
20.1359
 31
0.0
  0
LINE
  8
0
 62
     0
 10
109.145
 20
20.1359
 30
0.0
 11
109.145
 21
21.055
 31
0.0
  0
LINE
  8
0
 62
     0
 10
109.145
 20
21.055
 30
0.0
 11
105.844
 21
21.055
 31
0.0
  0
LINE
  8
0
 62
     0
 10
105.844
 20
21.055
 30
0.0
 11
105.844
 21
20.1359
 31
0.0
  0
LINE
  8
0
 62
     0
 10
105.844
 20
20.1359
 30
0.0
 11
104.119
 21
20.1359
 31
0.0
  0
LINE
  8
0
 62
     0
 10
104.119
 20
20.1359
 30
0.0
 11
104.119
 21
16.9058
 31
0.0
  0
LINE
  8
0
 62
     0
 10
104.119
 20
16.9058
 30
0.0
 11
103.294
 21
16.9058
 31
0.0
  0
LINE
  8
0
 62
     0
 10
103.294
 20
16.9058
 30
0.0
 11
103.294
 21
14.1056
 31
0.0
  0
LINE
  8
0
 62
     0
 10
103.294
 20
14.1056
 30
0.0
 11
104.119
 21
14.1056
 31
0.0
  0
LINE
  8
0
 62
     0
 10
104.119
 20
14.1056
 30
0.0
 11
104.119
 21
7.83551
 31
0.0
  0
LINE
  8
0
 62
     0
 10
104.119
 20
7.83551
 30
0.0
 11
105.844
 21
7.83551
 31
0.0
  0
LINE
  8
0
 62
     0
 10
105.844
 20
7.83551
 30
0.0
 11
105.844
 21
6.85574
 31
0.0
  0
LINE
  8
0
 62
     0
 10
105.844
 20
6.85574
 30
0.0
 11
109.145
 21
6.85574
 31
0.0
  0
LINE
  8
0
 62
     0
 10
109.145
 20
6.85574
 30
0.0
 11
109.145
 21
7.83551
 31
0.0
  0
LINE
  8
0
 62
     0
 10
109.145
 20
7.83551
 30
0.0
 11
110.869
 21
7.83551
 31
0.0
  0
LINE
  8
0
 62
     0
 10
110.869
 20
7.83551
 30
0.0
 11
110.869
 21
12.3059
 31
0.0
  0
LINE
  8
0
 62
     0
 10
110.869
 20
12.3059
 30
0.0
 11
112.394
 21
12.3059
 31
0.0
  0
LINE
  8
0
 62
     0
 10
112.394
 20
12.3059
 30
0.0
 11
112.394
 21
7.60539
 31
0.0
  0
LINE
  8
0
 62
     0
 10
112.394
 20
7.60539
 30
0.0
 11
126.395
 21
7.60539
 31
0.0
  0
LINE
  8
0
 62
     0
 10
126.395
 20
7.60539
 30
0.0
 11
126.395
 21
12.3059
 31
0.0
  0
LINE
  8
0
 62
     0
 10
126.395
 20
12.3059
 30
0.0
 11
127.919
 21
12.3059
 31
0.0
  0
LINE
  8
0
 62
     0
 10
127.919
 20
12.3059
 30
0.0
 11
127.919
 21
7.83551
 31
0.0
  0
LINE
  8
0
 62
     0
 10
127.919
 20
7.83551
 30
0.0
 11
129.644
 21
7.83551
 31
0.0
  0
LINE
  8
0
 62
     0
 10
129.644
 20
7.83551
 30
0.0
 11
129.644
 21
6.85574
 31
0.0
  0
LINE
  8
0
 62
     0
 10
129.644
 20
6.85574
 30
0.0
 11
132.945
 21
6.85574
 31
0.0
  0
LINE
  8
0
 62
     0
 10
132.945
 20
6.85574
 30
0.0
 11
132.945
 21
7.83551
 31
0.0
  0
LINE
  8
0
 62
     0
 10
132.945
 20
7.83551
 30
0.0
 11
134.67
 21
7.83551
 31
0.0
  0
LINE
  8
0
 62
     0
 10
134.67
 20
7.83551
 30
0.0
 11
134.67
 21
14.1056
 31
0.0
  0
LINE
  8
0
 62
     0
 10
134.67
 20
14.1056
 30
0.0
 11
135.494
 21
14.1056
 31
0.0
  0
LINE
  8
0
 62
     0
 10
135.494
 20
14.1056
 30
0.0
 11
135.494
 21
16.9058
 31
0.0
  0
LINE
  8
0
 62
     0
 10
135.494
 20
16.9058
 30
0.0
 11
134.67
 21
16.9058
 31
0.0
  0
LINE
  8
0
 62
     0
 10
134.67
 20
16.9058
 30
0.0
 11
134.67
 21
20.1359
 31
0.0
  0
LINE
  8
0
 62
     0
 10
134.67
 20
20.1359
 30
0.0
 11
132.945
 21
20.1359
 31
0.0
  0
LINE
  8
0
 62
     0
 10
132.945
 20
20.1359
 30
0.0
 11
132.945
 21
21.055
 31
0.0
  0
LINE
  8
0
 62
     0
 10
132.945
 20
21.055
 30
0.0
 11
129.644
 21
21.055
 31
0.0
  0
LINE
  8
0
 62
     0
 10
129.644
 20
21.055
 30
0.0
 11
129.644
 21
20.1359
 31
0.0
  0
LINE
  8
0
 62
     0
 10
129.644
 20
20.1359
 30
0.0
 11
127.919
 21
20.1359
 31
0.0
  0
LINE
  8
0
 62
     0
 10
127.919
 20
20.1359
 30
0.0
 11
127.919
 21
16.9058
 31
0.0
  0
LINE
  8
0
 62
     0
 10
127.919
 20
16.9058
 30
0.0
 11
126.395
 21
16.9058
 31
0.0
  0
LINE
  8
0
 62
     0
 10
126.395
 20
16.9058
 30
0.0
 11
126.395
 21
21.6063
 31
0.0
  0
LINE
  8
0
 62
     0
 10
126.395
 20
21.6063
 30
0.0
 11
112.394
 21
21.6063
 31
0.0
  0
LINE
  8
0
 62
     0
 10
7.61919
 20
21.6063
 30
0.0
 11
21.6201
 21
21.6063
 31
0.0
  0
LINE
  8
0
 62
     0
 10
21.6201
 20
21.6063
 30
0.0
 11
21.6201
 21
7.60402
 31
0.0
  0
LINE
  8
0
 62
     0
 10
21.6201
 20
7.60402
 30
0.0
 11
7.61919
 21
7.60402
 31
0.0
  0
LINE
  8
0
 62
     0
 10
7.61919
 20
7.60402
 30
0.0
 11
7.61919
 21
21.6063
 31
0.0
  0
LINE
  8
0
 62
     0
 10
26.6692
 20
21.6063
 30
0.0
 11
40.67
 21
21.6063
 31
0.0
  0
LINE
  8
0
 62
     0
 10
40.67
 20
21.6063
 30
0.0
 11
40.67
 21
7.60402
 31
0.0
  0
LINE
  8
0
 62
     0
 10
40.67
 20
7.60402
 30
0.0
 11
26.6692
 21
7.60402
 31
0.0
  0
LINE
  8
0
 62
     0
 10
26.6692
 20
7.60402
 30
0.0
 11
26.6692
 21
21.6063
 31
0.0
  0
LINE
  8
0
 62
     0
 10
45.7193
 20
21.6063
 30
0.0
 11
59.72
 21
21.6063
 31
0.0
  0
LINE
  8
0
 62
     0
 10
59.72
 20
21.6063
 30
0.0
 11
59.72
 21
7.60402
 31
0.0
  0
LINE
  8
0
 62
     0
 10
59.72
 20
7.60402
 30
0.0
 11
45.7193
 21
7.60402
 31
0.0
  0
LINE
  8
0
 62
     0
 10
45.7193
 20
7.60402
 30
0.0
 11
45.7193
 21
21.6063
 31
0.0
  0
LINE
  8
0
 62
     0
 10
64.7693
 20
21.6063
 30
0.0
 11
78.77
 21
21.6063
 31
0.0
  0
LINE
  8
0
 62
     0
 10
78.77
 20
21.6063
 30
0.0
 11
78.77
 21
7.60402
 31
0.0
  0
LINE
  8
0
 62
     0
 10
78.77
 20
7.60402
 30
0.0
 11
64.7693
 21
7.60402
 31
0.0
  0
LINE
  8
0
 62
     0
 10
64.7693
 20
7.60402
 30
0.0
 11
64.7693
 21
21.6063
 31
0.0
  0
LINE
  8
0
 62
     0
 10
83.8193
 20
21.6063
 30
0.0
 11
97.82
 21
21.6063
 31
0.0
  0
LINE
  8
0
 62
     0
 10
97.82
 20
21.6063
 30
0.0
 11
97.82
 21
7.60402
 31
0.0
  0
LINE
  8
0
 62
     0
 10
97.82
 20
7.60402
 30
0.0
 11
83.8193
 21
7.60402
 31
0.0
  0
LINE
  8
0
 62
     0
 10
83.8193
 20
7.60402
 30
0.0
 11
83.8193
 21
21.6063
 31
0.0
  0
LINE
  8
0
 62
     0
 10
140.969
 20
21.6063
 30
0.0
 11
154.97
 21
21.6063
 31
0.0
  0
LINE
  8
0
 62
     0
 10
154.97
 20
21.6063
 30
0.0
 11
154.97
 21
7.60402
 31
0.0
  0
LINE
  8
0
 62
     0
 10
154.97
 20
7.60402
 30
0.0
 11
140.969
 21
7.60402
 31
0.0
  0
LINE
  8
0
 62
     0
 10
140.969
 20
7.60402
 30
0.0
 11
140.969
 21
21.6063
 31
0.0
  0
LINE
  8
0
 62
     0
 10
160.019
 20
21.6063
 30
0.0
 11
174.02
 21
21.6063
 31
0.0
  0
LINE
  8
0
 62
     0
 10
174.02
 20
21.6063
 30
0.0
 11
174.02
 21
7.60402
 31
0.0
  0
LINE
  8
0
 62
     0
 10
174.02
 20
7.60402
 30
0.0
 11
160.019
 21
7.60402
 31
0.0
  0
LINE
  8
0
 62
     0
 10
160.019
 20
7.60402
 30
0.0
 11
160.019
 21
21.6063
 31
0.0
  0
LINE
  8
0
 62
     0
 10
179.069
 20
21.6063
 30
0.0
 11
193.07
 21
21.6063
 31
0.0
  0
LINE
  8
0
 62
     0
 10
193.07
 20
21.6063
 30
0.0
 11
193.07
 21
7.60402
 31
0.0
  0
LINE
  8
0
 62
     0
 10
193.07
 20
7.60402
 30
0.0
 11
179.069
 21
7.60402
 31
0.0
  0
LINE
  8
0
 62
     0
 10
179.069
 20
7.60402
 30
0.0
 11
179.069
 21
21.6063
 31
0.0
  0
LINE
  8
0
 62
     0
 10
198.119
 20
21.6063
 30
0.0
 11
212.12
 21
21.6063
 31
0.0
  0
LINE
  8
0
 62
     0
 10
212.12
 20
21.6063
 30
0.0
 11
212.12
 21
7.60402
 31
0.0
  0
LINE
  8
0
 62
     0
 10
212.12
 20
7.60402
 30
0.0
 11
198.119
 21
7.60402
 31
0.0
  0
LINE
  8
0
 62
     0
 10
198.119
 20
7.60402
 30
0.0
 11
198.119
 21
21.6063
 31
0.0
  0
LINE
  8
0
 62
     0
 10
217.169
 20
21.6063
 30
0.0
 11
231.17
 21
21.6063
 31
0.0
  0
LINE
  8
0
 62
     0
 10
231.17
 20
21.6063
 30
0.0
 11
231.17
 21
7.60402
 31
0.0
  0
LINE
  8
0
 62
     0
 10
231.17
 20
7.60402
 30
0.0
 11
217.169
 21
7.60402
 31
0.0
  0
LINE
  8
0
 62
     0
 10
217.169
 20
7.60402
 30
0.0
 11
217.169
 21
21.6063
 31
0.0
  0
LINE
  8
0
 62
     0
 10
7.61919
 20
40.6562
 30
0.0
 11
21.6201
 21
40.6562
 31
0.0
  0
LINE
  8
0
 62
     0
 10
21.6201
 20
40.6562
 30
0.0
 11
21.6201
 21
26.654
 31
0.0
  0
LINE
  8
0
 62
     0
 10
21.6201
 20
26.654
 30
0.0
 11
7.61919
 21
26.654
 31
0.0
  0
LINE
  8
0
 62
     0
 10
7.61919
 20
26.654
 30
0.0
 11
7.61919
 21
40.6562
 31
0.0
  0
LINE
  8
0
 62
     0
 10
26.6692
 20
40.6562
 30
0.0
 11
40.67
 21
40.6562
 31
0.0
  0
LINE
  8
0
 62
     0
 10
40.67
 20
40.6562
 30
0.0
 11
40.67
 21
26.654
 31
0.0
  0
LINE
  8
0
 62
     0
 10
40.67
 20
26.654
 30
0.0
 11
26.6692
 21
26.654
 31
0.0
  0
LINE
  8
0
 62
     0
 10
26.6692
 20
26.654
 30
0.0
 11
26.6692
 21
40.6562
 31
0.0
  0
LINE
  8
0
 62
     0
 10
45.7193
 20
40.6562
 30
0.0
 11
59.72
 21
40.6562
 31
0.0
  0
LINE
  8
0
 62
     0
 10
59.72
 20
40.6562
 30
0.0
 11
59.72
 21
26.654
 31
0.0
  0
LINE
  8
0
 62
     0
 10
59.72
 20
26.654
 30
0.0
 11
45.7193
 21
26.654
 31
0.0
  0
LINE
  8
0
 62
     0
 10
45.7193
 20
26.654
 30
0.0
 11
45.7193
 21
40.6562
 31
0.0
  0
LINE
  8
0
 62
     0
 10
64.7693
 20
40.6562
 30
0.0
 11
78.77
 21
40.6562
 31
0.0
  0
LINE
  8
0
 62
     0
 10
78.77
 20
40.6562
 30
0.0
 11
78.77
 21
26.654
 31
0.0
  0
LINE
  8
0
 62
     0
 10
78.77
 20
26.654
 30
0.0
 11
64.7693
 21
26.654
 31
0.0
  0
LINE
  8
0
 62
     0
 10
64.7693
 20
26.654
 30
0.0
 11
64.7693
 21
40.6562
 31
0.0
  0
LINE
  8
0
 62
     0
 10
83.8193
 20
40.6562
 30
0.0
 11
97.82
 21
40.6562
 31
0.0
  0
LINE
  8
0
 62
     0
 10
97.82
 20
40.6562
 30
0.0
 11
97.82
 21
26.654
 31
0.0
  0
LINE
  8
0
 62
     0
 10
97.82
 20
26.654
 30
0.0
 11
83.8193
 21
26.654
 31
0.0
  0
LINE
  8
0
 62
     0
 10
83.8193
 20
26.654
 30
0.0
 11
83.8193
 21
40.6562
 31
0.0
  0
LINE
  8
0
 62
     0
 10
102.869
 20
40.6562
 30
0.0
 11
116.869
 21
40.6562
 31
0.0
  0
LINE
  8
0
 62
     0
 10
116.869
 20
40.6562
 30
0.0
 11
116.869
 21
26.654
 31
0.0
  0
LINE
  8
0
 62
     0
 10
116.869
 20
26.654
 30
0.0
 11
102.869
 21
26.654
 31
0.0
  0
LINE
  8
0
 62
     0
 10
102.869
 20
26.654
 30
0.0
 11
102.869
 21
40.6562
 31
0.0
  0
LINE
  8
0
 62
     0
 10
121.919
 20
40.6562
 30
0.0
 11
135.92
 21
40.6562
 31
0.0
  0
LINE
  8
0
 62
     0
 10
135.92
 20
40.6562
 30
0.0
 11
135.92
 21
26.654
 31
0.0
  0
LINE
  8
0
 62
     0
 10
135.92
 20
26.654
 30
0.0
 11
121.919
 21
26.654
 31
0.0
  0
LINE
  8
0
 62
     0
 10
121.919
 20
26.654
 30
0.0
 11
121.919
 21
40.6562
 31
0.0
  0
LINE
  8
0
 62
     0
 10
140.969
 20
40.6562
 30
0.0
 11
154.97
 21
40.6562
 31
0.0
  0
LINE
  8
0
 62
     0
 10
154.97
 20
40.6562
 30
0.0
 11
154.97
 21
26.654
 31
0.0
  0
LINE
  8
0
 62
     0
 10
154.97
 20
26.654
 30
0.0
 11
140.969
 21
26.654
 31
0.0
  0
LINE
  8
0
 62
     0
 10
140.969
 20
26.654
 30
0.0
 11
140.969
 21
40.6562
 31
0.0
  0
LINE
  8
0
 62
     0
 10
160.019
 20
40.6562
 30
0.0
 11
174.02
 21
40.6562
 31
0.0
  0
LINE
  8
0
 62
     0
 10
174.02
 20
40.6562
 30
0.0
 11
174.02
 21
26.654
 31
0.0
  0
LINE
  8
0
 62
     0
 10
174.02
 20
26.654
 30
0.0
 11
160.019
 21
26.654
 31
0.0
  0
LINE
  8
0
 62
     0
 10
160.019
 20
26.654
 30
0.0
 11
160.019
 21
40.6562
 31
0.0
  0
LINE
  8
0
 62
     0
 10
179.069
 20
40.6562
 30
0.0
 11
193.07
 21
40.6562
 31
0.0
  0
LINE
  8
0
 62
     0
 10
193.07
 20
40.6562
 30
0.0
 11
193.07
 21
26.654
 31
0.0
  0
LINE
  8
0
 62
     0
 10
193.07
 20
26.654
 30
0.0
 11
179.069
 21
26.654
 31
0.0
  0
LINE
  8
0
 62
     0
 10
179.069
 20
26.654
 30
0.0
 11
179.069
 21
40.6562
 31
0.0
  0
LINE
  8
0
 62
     0
 10
198.119
 20
40.6562
 30
0.0
 11
212.12
 21
40.6562
 31
0.0
  0
LINE
  8
0
 62
     0
 10
212.12
 20
40.6562
 30
0.0
 11
212.12
 21
26.654
 31
0.0
  0
LINE
  8
0
 62
     0
 10
212.12
 20
26.654
 30
0.0
 11
198.119
 21
26.654
 31
0.0
  0
LINE
  8
0
 62
     0
 10
198.119
 20
26.654
 30
0.0
 11
198.119
 21
40.6562
 31
0.0
  0
LINE
  8
0
 62
     0
 10
217.169
 20
40.6562
 30
0.0
 11
231.17
 21
40.6562
 31
0.0
  0
LINE
  8
0
 62
     0
 10
231.17
 20
40.6562
 30
0.0
 11
231.17
 21
26.654
 31
0.0
  0
LINE
  8
0
 62
     0
 10
231.17
 20
26.654
 30
0.0
 11
217.169
 21
26.654
 31
0.0
  0
LINE
  8
0
 62
     0
 10
217.169
 20
26.654
 30
0.0
 11
217.169
 21
40.6562
 31
0.0
  0
LINE
  8
0
 62
     0
 10
7.61919
 20
59.7062
 30
0.0
 11
21.6201
 21
59.7062
 31
0.0
  0
LINE
  8
0
 62
     0
 10
21.6201
 20
59.7062
 30
0.0
 11
21.6201
 21
45.7041
 31
0.0
  0
LINE
  8
0
 62
     0
 10
21.6201
 20
45.7041
 30
0.0
 11
7.61919
 21
45.7041
 31
0.0
  0
LINE
  8
0
 62
     0
 10
7.61919
 20
45.7041
 30
0.0
 11
7.61919
 21
59.7062
 31
0.0
  0
LINE
  8
0
 62
     0
 10
26.6692
 20
59.7062
 30
0.0
 11
40.67
 21
59.7062
 31
0.0
  0
LINE
  8
0
 62
     0
 10
40.67
 20
59.7062
 30
0.0
 11
40.67
 21
45.7041
 31
0.0
  0
LINE
  8
0
 62
     0
 10
40.67
 20
45.7041
 30
0.0
 11
26.6692
 21
45.7041
 31
0.0
  0
LINE
  8
0
 62
     0
 10
26.6692
 20
45.7041
 30
0.0
 11
26.6692
 21
59.7062
 31
0.0
  0
LINE
  8
0
 62
     0
 10
45.7193
 20
59.7062
 30
0.0
 11
59.72
 21
59.7062
 31
0.0
  0
LINE
  8
0
 62
     0
 10
59.72
 20
59.7062
 30
0.0
 11
59.72
 21
45.7041
 31
0.0
  0
LINE
  8
0
 62
     0
 10
59.72
 20
45.7041
 30
0.0
 11
45.7193
 21
45.7041
 31
0.0
  0
LINE
  8
0
 62
     0
 10
45.7193
 20
45.7041
 30
0.0
 11
45.7193
 21
59.7062
 31
0.0
  0
LINE
  8
0
 62
     0
 10
64.7693
 20
59.7062
 30
0.0
 11
78.77
 21
59.7062
 31
0.0
  0
LINE
  8
0
 62
     0
 10
78.77
 20
59.7062
 30
0.0
 11
78.77
 21
45.7041
 31
0.0
  0
LINE
  8
0
 62
     0
 10
78.77
 20
45.7041
 30
0.0
 11
64.7693
 21
45.7041
 31
0.0
  0
LINE
  8
0
 62
     0
 10
64.7693
 20
45.7041
 30
0.0
 11
64.7693
 21
59.7062
 31
0.0
  0
LINE
  8
0
 62
     0
 10
83.8193
 20
59.7062
 30
0.0
 11
97.82
 21
59.7062
 31
0.0
  0
LINE
  8
0
 62
     0
 10
97.82
 20
59.7062
 30
0.0
 11
97.82
 21
45.7041
 31
0.0
  0
LINE
  8
0
 62
     0
 10
97.82
 20
45.7041
 30
0.0
 11
83.8193
 21
45.7041
 31
0.0
  0
LINE
  8
0
 62
     0
 10
83.8193
 20
45.7041
 30
0.0
 11
83.8193
 21
59.7062
 31
0.0
  0
LINE
  8
0
 62
     0
 10
102.869
 20
59.7062
 30
0.0
 11
116.869
 21
59.7062
 31
0.0
  0
LINE
  8
0
 62
     0
 10
116.869
 20
59.7062
 30
0.0
 11
116.869
 21
45.7041
 31
0.0
  0
LINE
  8
0
 62
     0
 10
116.869
 20
45.7041
 30
0.0
 11
102.869
 21
45.7041
 31
0.0
  0
LINE
  8
0
 62
     0
 10
102.869
 20
45.7041
 30
0.0
 11
102.869
 21
59.7062
 31
0.0
  0
LINE
  8
0
 62
     0
 10
121.919
 20
59.7062
 30
0.0
 11
135.92
 21
59.7062
 31
0.0
  0
LINE
  8
0
 62
     0
 10
135.92
 20
59.7062
 30
0.0
 11
135.92
 21
45.7041
 31
0.0
  0
LINE
  8
0
 62
     0
 10
135.92
 20
45.7041
 30
0.0
 11
121.919
 21
45.7041
 31
0.0
  0
LINE
  8
0
 62
     0
 10
121.919
 20
45.7041
 30
0.0
 11
121.919
 21
59.7062
 31
0.0
  0
LINE
  8
0
 62
     0
 10
140.969
 20
59.7062
 30
0.0
 11
154.97
 21
59.7062
 31
0.0
  0
LINE
  8
0
 62
     0
 10
154.97
 20
59.7062
 30
0.0
 11
154.97
 21
45.7041
 31
0.0
  0
LINE
  8
0
 62
     0
 10
154.97
 20
45.7041
 30
0.0
 11
140.969
 21
45.7041
 31
0.0
  0
LINE
  8
0
 62
     0
 10
140.969
 20
45.7041
 30
0.0
 11
140.969
 21
59.7062
 31
0.0
  0
LINE
  8
0
 62
     0
 10
160.019
 20
59.7062
 30
0.0
 11
174.02
 21
59.7062
 31
0.0
  0
LINE
  8
0
 62
     0
 10
174.02
 20
59.7062
 30
0.0
 11
174.02
 21
45.7041
 31
0.0
  0
LINE
  8
0
 62
     0
 10
174.02
 20
45.7041
 30
0.0
 11
160.019
 21
45.7041
 31
0.0
  0
LINE
  8
0
 62
     0
 10
160.019
 20
45.7041
 30
0.0
 11
160.019
 21
59.7062
 31
0.0
  0
LINE
  8
0
 62
     0
 10
179.069
 20
59.7062
 30
0.0
 11
193.07
 21
59.7062
 31
0.0
  0
LINE
  8
0
 62
     0
 10
193.07
 20
59.7062
 30
0.0
 11
193.07
 21
45.7041
 31
0.0
  0
LINE
  8
0
 62
     0
 10
193.07
 20
45.7041
 30
0.0
 11
179.069
 21
45.7041
 31
0.0
  0
LINE
  8
0
 62
     0
 10
179.069
 20
45.7041
 30
0.0
 11
179.069
 21
59.7062
 31
0.0
  0
LINE
  8
0
 62
     0
 10
198.119
 20
59.7062
 30
0.0
 11
212.12
 21
59.7062
 31
0.0
  0
LINE
  8
0
 62
     0
 10
212.12
 20
59.7062
 30
0.0
 11
212.12
 21
45.7041
 31
0.0
  0
LINE
  8
0
 62
     0
 10
212.12
 20
45.7041
 30
0.0
 11
198.119
 21
45.7041
 31
0.0
  0
LINE
  8
0
 62
     0
 10
198.119
 20
45.7041
 30
0.0
 11
198.119
 21
59.7062
 31
0.0
  0
LINE
  8
0
 62
     0
 10
217.169
 20
59.7062
 30
0.0
 11
231.17
 21
59.7062
 31
0.0
  0
LINE
  8
0
 62
     0
 10
231.17
 20
59.7062
 30
0.0
 11
231.17
 21
45.7041
 31
0.0
  0
LINE
  8
0
 62
     0
 10
231.17
 20
45.7041
 30
0.0
 11
217.169
 21
45.7041
 31
0.0
  0
LINE
  8
0
 62
     0
 10
217.169
 20
45.7041
 30
0.0
 11
217.169
 21
59.7062
 31
0.0
  0
LINE
  8
0
 62
     0
 10
7.61919
 20
78.7562
 30
0.0
 11
21.6201
 21
78.7562
 31
0.0
  0
LINE
  8
0
 62
     0
 10
21.6201
 20
78.7562
 30
0.0
 11
21.6201
 21
64.7541
 31
0.0
  0
LINE
  8
0
 62
     0
 10
21.6201
 20
64.7541
 30
0.0
 11
7.61919
 21
64.7541
 31
0.0
  0
LINE
  8
0
 62
     0
 10
7.61919
 20
64.7541
 30
0.0
 11
7.61919
 21
78.7562
 31
0.0
  0
LINE
  8
0
 62
     0
 10
26.6692
 20
78.7562
 30
0.0
 11
40.67
 21
78.7562
 31
0.0
  0
LINE
  8
0
 62
     0
 10
40.67
 20
78.7562
 30
0.0
 11
40.67
 21
64.7541
 31
0.0
  0
LINE
  8
0
 62
     0
 10
40.67
 20
64.7541
 30
0.0
 11
26.6692
 21
64.7541
 31
0.0
  0
LINE
  8
0
 62
     0
 10
26.6692
 20
64.7541
 30
0.0
 11
26.6692
 21
78.7562
 31
0.0
  0
LINE
  8
0
 62
     0
 10
45.7193
 20
78.7562
 30
0.0
 11
59.72
 21
78.7562
 31
0.0
  0
LINE
  8
0
 62
     0
 10
59.72
 20
78.7562
 30
0.0
 11
59.72
 21
64.7541
 31
0.0
  0
LINE
  8
0
 62
     0
 10
59.72
 20
64.7541
 30
0.0
 11
45.7193
 21
64.7541
 31
0.0
  0
LINE
  8
0
 62
     0
 10
45.7193
 20
64.7541
 30
0.0
 11
45.7193
 21
78.7562
 31
0.0
  0
LINE
  8
0
 62
     0
 10
64.7693
 20
78.7562
 30
0.0
 11
78.77
 21
78.7562
 31
0.0
  0
LINE
  8
0
 62
     0
 10
78.77
 20
78.7562
 30
0.0
 11
78.77
 21
64.7541
 31
0.0
  0
LINE
  8
0
 62
     0
 10
78.77
 20
64.7541
 30
0.0
 11
64.7693
 21
64.7541
 31
0.0
  0
LINE
  8
0
 62
     0
 10
64.7693
 20
64.7541
 30
0.0
 11
64.7693
 21
78.7562
 31
0.0
  0
LINE
  8
0
 62
     0
 10
83.8193
 20
78.7562
 30
0.0
 11
97.82
 21
78.7562
 31
0.0
  0
LINE
  8
0
 62
     0
 10
97.82
 20
78.7562
 30
0.0
 11
97.82
 21
64.7541
 31
0.0
  0
LINE
  8
0
 62
     0
 10
97.82
 20
64.7541
 30
0.0
 11
83.8193
 21
64.7541
 31
0.0
  0
LINE
  8
0
 62
     0
 10
83.8193
 20
64.7541
 30
0.0
 11
83.8193
 21
78.7562
 31
0.0
  0
LINE
  8
0
 62
     0
 10
102.869
 20
78.7562
 30
0.0
 11
116.869
 21
78.7562
 31
0.0
  0
LINE
  8
0
 62
     0
 10
116.869
 20
78.7562
 30
0.0
 11
116.869
 21
64.7541
 31
0.0
  0
LINE
  8
0
 62
     0
 10
116.869
 20
64.7541
 30
0.0
 11
102.869
 21
64.7541
 31
0.0
  0
LINE
  8
0
 62
     0
 10
102.869
 20
64.7541
 30
0.0
 11
102.869
 21
78.7562
 31
0.0
  0
LINE
  8
0
 62
     0
 10
121.919
 20
78.7562
 30
0.0
 11
135.92
 21
78.7562
 31
0.0
  0
LINE
  8
0
 62
     0
 10
135.92
 20
78.7562
 30
0.0
 11
135.92
 21
64.7541
 31
0.0
  0
LINE
  8
0
 62
     0
 10
135.92
 20
64.7541
 30
0.0
 11
121.919
 21
64.7541
 31
0.0
  0
LINE
  8
0
 62
     0
 10
121.919
 20
64.7541
 30
0.0
 11
121.919
 21
78.7562
 31
0.0
  0
LINE
  8
0
 62
     0
 10
140.969
 20
78.7562
 30
0.0
 11
154.97
 21
78.7562
 31
0.0
  0
LINE
  8
0
 62
     0
 10
154.97
 20
78.7562
 30
0.0
 11
154.97
 21
64.7541
 31
0.0
  0
LINE
  8
0
 62
     0
 10
154.97
 20
64.7541
 30
0.0
 11
140.969
 21
64.7541
 31
0.0
  0
LINE
  8
0
 62
     0
 10
140.969
 20
64.7541
 30
0.0
 11
140.969
 21
78.7562
 31
0.0
  0
LINE
  8
0
 62
     0
 10
160.019
 20
78.7562
 30
0.0
 11
174.02
 21
78.7562
 31
0.0
  0
LINE
  8
0
 62
     0
 10
174.02
 20
78.7562
 30
0.0
 11
174.02
 21
64.7541
 31
0.0
  0
LINE
  8
0
 62
     0
 10
174.02
 20
64.7541
 30
0.0
 11
160.019
 21
64.7541
 31
0.0
  0
LINE
  8
0
 62
     0
 10
160.019
 20
64.7541
 30
0.0
 11
160.019
 21
78.7562
 31
0.0
  0
LINE
  8
0
 62
     0
 10
179.069
 20
78.7562
 30
0.0
 11
193.07
 21
78.7562
 31
0.0
  0
LINE
  8
0
 62
     0
 10
193.07
 20
78.7562
 30
0.0
 11
193.07
 21
64.7541
 31
0.0
  0
LINE
  8
0
 62
     0
 10
193.07
 20
64.7541
 30
0.0
 11
179.069
 21
64.7541
 31
0.0
  0
LINE
  8
0
 62
     0
 10
179.069
 20
64.7541
 30
0.0
 11
179.069
 21
78.7562
 31
0.0
  0
LINE
  8
0
 62
     0
 10
198.119
 20
78.7562
 30
0.0
 11
212.12
 21
78.7562
 31
0.0
  0
LINE
  8
0
 62
     0
 10
212.12
 20
78.7562
 30
0.0
 11
212.12
 21
64.7541
 31
0.0
  0
LINE
  8
0
 62
     0
 10
212.12
 20
64.7541
 30
0.0
 11
198.119
 21
64.7541
 31
0.0
  0
LINE
  8
0
 62
     0
 10
198.119
 20
64.7541
 30
0.0
 11
198.119
 21
78.7562
 31
0.0
  0
LINE
  8
0
 62
     0
 10
217.169
 20
78.7562
 30
0.0
 11
231.17
 21
78.7562
 31
0.0
  0
LINE
  8
0
 62
     0
 10
231.17
 20
78.7562
 30
0.0
 11
231.17
 21
64.7541
 31
0.0
  0
LINE
  8
0
 62
     0
 10
231.17
 20
64.7541
 30
0.0
 11
217.169
 21
64.7541
 31
0.0
  0
LINE
  8
0
 62
     0
 10
217.169
 20
64.7541
 30
0.0
 11
217.169
 21
78.7562
 31
0.0
  0
ENDSEC
  0
EOF
